<?xml version="1.0" standalone="no"?><!--
"/* FilePathName: theodorus/theodorus2Cgithub.svg */"
"/* Uploaded: 20:25:50,  Mon 19 Jul 2021 */"
"/* LineNo: 41 */"-->
<!DOCTYPE svg PUBLIC "-//W3C//DTD SVG 1.0//EN"
    "http://www.w3.org/TR/2001/REC-SVG-20010904/DTD/svg10.dtd">
<svg width="800" height="800" style="background:#afa;"
     xmlns="http://www.w3.org/2000/svg">
<title>Move Cows Around Spiral Loop</title>
<path id="pida" fill="none" stroke="#f55" stroke-width="39"
 d="M212.4 526.3L233.5 544.9,256.7 560.7,281.8 573.4,308.3 582.6,
335.8 588.4,363.9 590.5,391.9 588.8,419.5 583.3,446.1 574.2,
471.1 561.5,494.2 545.5,514.8 526.4,532.5 504.5,547.0 480.4,
557.7 454.4,564.6 427.2,567.4 399.2,565.9 371.1,560.3 343.6,
550.5 317.2,536.7 292.7,519.3 270.6,498.5 251.6,475.0 236.2,
449.3 224.8,422.0 217.9,394.0 215.6,366.0 218.1,338.8 225.5,
313.4 237.5,290.5 253.9,270.9 274.1,255.5 297.7,244.8 323.7,
239.3 351.3,239.3 379.5,244.9 407.1,256.1 432.9,272.4 455.9,
293.3 474.8,317.9 488.7,344.9 496.7,373.1 498.2,400.8 493.0,
426.4 481.1,448.1 463.1,464.4 440.0,473.8 413.3,475.1 385.1,
468.1 357.7,452.8 333.8,430.5 316.3,403.4 307.7,375.0 309.8,
349.9 323.3,333.3 346.6,330.5 375.2,344.9 400.4,373.4 408.0,
380.8 379.2,386.9 352.1,415.2 359.7,429.5 384.8,426.8 413.3,
410.4 436.6,385.4 450.2,357.1 452.5,330.0 444.0,307.6 426.7,
292.1 403.1,284.8 375.8,285.9 347.5,295.0 320.8,311.0 297.6,
332.6 279.4,358.0 267.2,385.7 261.7,413.8 262.9,440.9 270.6,
465.6 284.2,486.7 302.9,503.3 325.7,514.7 351.4,520.7 378.9,
521.1 407.0,515.9 434.7,505.5 460.8,490.3 484.5,471.1 505.0,
448.4 521.7,423.1 534.0,396.1 541.7,368.1 544.6,340.0 542.6,
312.7 536.0,286.8 525.0,263.1 509.9,242.2 491.1,224.4 469.3,
210.4 445.0,200.2 418.8,194.2 391.3,192.4 363.3,194.8 335.3,
201.3 307.9,211.7 281.9,225.8 257.5,243.2 235.5,263.5 216.1,
286.4 199.7,311.3 186.7,337.7 177.2,365.2 171.4,393.2 169.3,
421.3 171.0,448.9 176.4,475.5 185.3,500.8 197.6,524.2 213.0,
545.5 231.3,564.4 252.2,580.4 275.2,593.5 300.1,603.4 326.4,
610.1 353.6,613.3 381.5,613.2 409.6,609.8 437.5,603.0 464.8,
593.1 491.0,580.2 516.0,564.5 539.2,546.2 560.6,525.6 579.6,
503.0 596.2,478.6 610.2,452.8 621.3,425.9 629.5,398.3 634.6,
370.3 636.7,342.3 635.7,314.5 631.7,287.3 624.7,261.0 614.8,
235.9 602.2,212.3 587.0,190.5 569.4"/>
<path id="pid" fill="#5f5" stroke="#474" stroke-width="0.5"
d=" M212.0,506.3 232.4,525.9 212.8,546.3 192.4,526.7Z
M230.5,525.2 253.2,542.0 236.4,564.7 213.7,547.9Z
M251.2,541.5 276.0,555.2 262.2,579.9 237.5,566.2Z
M273.8,555.0 300.2,565.4 289.8,591.7 263.5,581.3Z
M298.0,565.5 325.5,572.3 318.6,599.8 291.2,593.0Z
M323.3,572.8 351.5,575.9 348.3,604.0 320.2,600.9Z
M349.4,576.7 377.7,576.0 378.3,604.3 350.1,604.9Z
M375.7,577.1 403.6,572.6 408.1,600.5 380.2,605.0Z
M401.8,573.9 428.9,565.7 437.1,592.7 410.1,601.0Z
M427.3,567.3 452.9,555.4 464.8,581.1 439.2,593.0Z
M451.6,557.3 475.3,541.9 490.7,565.7 467.0,581.1Z
M474.3,544.1 495.6,525.5 514.2,546.9 492.8,565.4Z
M494.9,527.8 513.4,506.4 534.8,524.9 516.3,546.3Z
M513.0,508.8 528.3,485.0 552.1,500.2 536.8,524.1Z
M528.2,487.5 539.9,461.7 565.7,473.3 554.0,499.1Z
M540.2,464.1 548.0,436.9 575.2,444.7 567.4,471.9Z
M548.7,439.4 552.4,411.3 580.4,415.0 576.8,443.0Z
M553.5,413.6 552.9,385.3 581.2,384.8 581.8,413.0Z
M554.4,387.5 549.6,359.6 577.4,354.8 582.3,382.6Z
M551.4,361.5 542.4,334.7 569.2,325.7 578.2,352.5Z
M544.5,336.3 531.4,311.2 556.5,298.1 569.5,323.2Z
M533.8,312.5 516.9,289.8 539.6,272.9 556.5,295.6Z
M519.5,290.6 499.3,270.9 519.0,250.6 539.3,270.4Z
M502.0,271.3 478.8,255.1 495.1,231.9 518.2,248.2Z
M481.6,255.1 456.1,242.8 468.4,217.3 493.9,229.6Z
M458.9,242.4 431.8,234.5 439.7,207.3 466.8,215.2Z
M434.5,233.6 406.4,230.3 409.6,202.2 437.7,205.5Z
M408.9,228.9 380.7,230.5 379.1,202.2 407.3,200.7Z
M382.9,228.7 355.4,235.1 349.0,207.5 376.6,201.1Z
M357.4,232.9 331.4,244.0 320.3,218.0 346.3,206.9Z
M333.0,241.5 309.3,257.1 293.8,233.4 317.4,217.9Z
M310.5,254.3 290.0,273.9 270.5,253.4 290.9,233.9Z
M290.7,270.9 274.2,293.9 251.2,277.4 267.7,254.4Z
M274.3,290.8 262.4,316.5 236.7,304.5 248.6,278.9Z
M261.9,313.4 255.1,340.8 227.7,334.0 234.5,306.6Z
M254.1,337.9 252.7,366.1 224.5,364.7 225.8,336.5Z
M251.2,363.4 255.4,391.3 227.4,395.6 223.2,367.6Z
M253.3,388.9 263.1,415.5 236.5,425.2 226.8,398.7Z
M260.6,413.4 275.6,437.4 251.6,452.4 236.6,428.5Z
M272.7,435.9 292.4,456.1 272.2,475.9 252.4,455.6Z
M289.3,455.2 312.9,470.8 297.4,494.4 273.7,478.9Z
M309.6,470.5 336.1,480.4 326.1,506.9 299.6,497.0Z
M332.7,480.8 360.8,484.5 357.1,512.6 329.0,508.9Z
M357.5,485.6 385.7,482.7 388.6,510.8 360.5,513.8Z
M382.7,484.5 409.3,474.9 418.9,501.5 392.3,511.1Z
M406.7,477.3 430.2,461.5 446.0,484.9 422.6,500.8Z
M428.2,464.5 446.8,443.2 468.1,461.8 449.5,483.1Z
M445.5,446.6 457.8,421.1 483.3,433.5 471.0,458.9Z
M457.4,424.8 462.3,397.0 490.1,401.9 485.2,429.7Z
M462.7,400.8 459.5,372.7 487.6,369.4 490.8,397.5Z
M460.9,376.3 449.4,350.5 475.2,339.0 486.7,364.9Z
M451.8,353.8 432.8,332.8 453.7,313.9 472.7,334.8Z
M436.1,335.5 411.3,322.0 424.8,297.1 449.6,310.7Z
M415.4,323.7 387.4,319.7 391.4,291.7 419.4,295.7Z
M392.2,320.1 364.7,327.0 357.9,299.5 385.3,292.7Z
M369.7,325.7 347.4,343.1 330.0,320.8 352.3,303.4Z
M352.1,339.9 339.9,365.4 314.4,353.2 326.6,327.7Z
M343.5,360.0 345.7,388.2 317.5,390.4 315.3,362.2Z
M346.5,380.5 364.8,402.1 343.2,420.3 324.9,398.7Z
M360.1,393.1 388.3,394.7 386.7,422.9 358.5,421.3Z
M383.5,399.1 361.0,381.9 378.2,359.4 400.6,376.6Z
M400.1,367.2 371.9,365.2 373.8,337.0 402.0,339.0Z
M413.5,379.6 395.3,358.0 417.0,339.8 435.1,361.5Z
M416.5,400.0 414.3,371.8 442.5,369.5 444.7,397.7Z
M408.0,420.0 420.1,394.4 445.7,406.6 433.5,432.1Z
M390.5,434.2 412.8,416.7 430.2,439.0 408.0,456.5Z
M368.2,439.9 395.6,433.0 402.6,460.4 375.2,467.3Z
M345.0,436.6 373.0,440.3 369.2,468.4 341.2,464.6Z
M324.2,424.9 349.2,438.3 335.8,463.2 310.9,449.8Z
M308.4,406.8 327.6,427.6 306.8,446.7 287.6,425.9Z
M299.2,384.3 310.9,410.1 285.1,421.8 273.4,396.0Z
M297.1,360.0 300.6,388.0 272.5,391.5 269.0,363.5Z
M302.2,335.9 297.6,363.8 269.7,359.1 274.3,331.2Z
M313.9,314.1 301.7,339.6 276.2,327.5 288.3,302.0Z
M331.0,296.0 312.6,317.5 291.1,299.1 309.5,277.6Z
M352.3,283.0 329.0,299.0 312.9,275.8 336.2,259.7Z
M376.2,275.6 349.7,285.4 339.9,258.9 366.4,249.0Z
M401.3,274.2 373.2,277.4 370.0,249.3 398.1,246.1Z
M426.2,278.7 398.1,275.3 401.5,247.2 429.6,250.6Z
M449.4,288.8 422.8,279.1 432.5,252.5 459.1,262.2Z
M469.9,303.8 446.1,288.5 461.4,264.7 485.2,280.0Z
M486.6,322.9 466.7,302.8 486.8,282.9 506.7,303.0Z
M499.0,345.2 483.7,321.4 507.6,306.1 522.8,329.9Z
M506.5,369.6 496.5,343.2 522.9,333.1 533.0,359.6Z
M509.0,395.1 504.5,367.2 532.4,362.7 536.9,390.6Z
M506.4,420.6 507.5,392.3 535.7,393.4 534.6,421.7Z
M498.8,445.2 505.4,417.7 532.9,424.2 526.4,451.7Z
M486.8,467.9 498.4,442.1 524.2,453.8 512.5,479.5Z
M470.6,488.0 486.9,464.8 510.0,481.1 493.8,504.2Z
M451.1,504.8 471.3,485.0 491.1,505.3 470.8,525.0Z
M428.8,517.9 452.2,502.1 468.0,525.5 444.6,541.3Z
M404.5,526.8 430.4,515.4 441.7,541.3 415.9,552.6Z
M379.0,531.3 406.4,524.6 413.1,552.1 385.7,558.8Z
M353.0,531.4 381.3,529.5 383.1,557.8 354.9,559.6Z
M327.4,527.1 355.6,530.1 352.6,558.2 324.5,555.2Z
M302.9,518.6 330.1,526.2 322.5,553.5 295.3,545.9Z
M280.0,506.2 305.6,518.2 293.7,543.8 268.0,531.8Z
M259.5,490.2 282.8,506.2 266.8,529.5 243.5,513.5Z
M241.7,471.2 262.2,490.7 242.6,511.1 222.2,491.6Z
M227.2,449.5 244.3,472.0 221.7,489.1 204.6,466.6Z
M216.1,425.9 229.5,450.8 204.6,464.1 191.2,439.2Z
M208.9,400.8 218.2,427.5 191.5,436.8 182.2,410.1Z
M205.5,374.9 210.7,402.7 182.9,407.8 177.7,380.0Z
M206.1,348.7 207.0,377.0 178.7,377.9 177.8,349.6Z
M210.5,322.9 207.2,351.0 179.1,347.7 182.4,319.6Z
M218.7,298.0 211.2,325.3 183.9,317.9 191.4,290.6Z
M230.4,274.6 219.0,300.5 193.1,289.1 204.4,263.2Z
M245.3,253.0 230.3,277.0 206.3,262.0 221.3,238.0Z
M263.1,233.8 244.9,255.4 223.3,237.1 241.5,215.5Z
M283.5,217.3 262.4,236.1 243.6,214.9 264.7,196.1Z
M306.0,203.7 282.4,219.4 266.8,195.8 290.4,180.1Z
M330.2,193.4 304.6,205.6 292.4,180.1 318.0,167.9Z
M355.5,186.4 328.6,195.0 320.0,168.0 346.9,159.5Z
M381.6,182.9 353.7,187.8 348.9,159.9 376.8,155.1Z
M407.9,183.0 379.6,184.0 378.6,155.7 406.9,154.7Z
M434.0,186.5 405.8,183.7 408.6,155.6 436.8,158.3Z
M459.4,193.4 431.8,186.9 438.3,159.4 465.9,165.9Z
M483.7,203.6 457.2,193.5 467.3,167.1 493.7,177.1Z
M506.5,216.8 481.6,203.3 495.0,178.4 519.9,191.9Z
M527.4,232.8 504.5,216.2 521.0,193.3 544.0,209.8Z
M546.2,251.3 525.5,232.0 544.9,211.3 565.5,230.7Z
M562.4,272.1 544.5,250.3 566.3,232.3 584.3,254.1Z
M576.0,294.7 560.9,270.8 584.8,255.7 599.9,279.6Z
M586.7,318.9 574.7,293.2 600.3,281.3 612.3,306.9Z
M594.3,344.2 585.6,317.2 612.6,308.6 621.2,335.5Z
M598.8,370.2 593.5,342.4 621.3,337.1 626.6,364.9Z
M600.2,396.6 598.3,368.3 626.5,366.5 628.4,394.7Z
M598.3,422.9 599.9,394.7 628.2,396.3 626.5,424.5Z
M593.3,448.9 598.4,421.1 626.2,426.1 621.2,453.9Z
M585.4,474.1 593.7,447.1 620.7,455.4 612.4,482.4Z
M574.5,498.2 585.9,472.4 611.8,483.9 600.3,509.7Z
M560.8,520.9 575.3,496.6 599.6,511.1 585.1,535.4Z
M544.7,541.9 561.9,519.4 584.3,536.6 567.1,559.1Z
M526.2,560.8 545.9,540.6 566.2,560.3 546.5,580.6Z
M505.7,577.6 527.7,559.7 545.5,581.7 523.5,599.5Z
M483.4,591.9 507.3,576.7 522.5,600.6 498.6,615.8Z
M459.7,603.6 485.1,591.3 497.5,616.7 472.0,629.1Z
M434.8,612.6 461.5,603.3 470.8,630.0 444.1,639.3Z
M409.0,618.8 436.6,612.5 442.9,640.1 415.3,646.4Z
M382.7,622.2 410.8,619.0 414.0,647.1 385.9,650.3Z
M356.2,622.6 384.5,622.6 384.5,650.9 356.2,650.9Z
M329.8,620.1 357.9,623.3 354.7,651.4 326.6,648.2Z
M303.8,614.8 331.4,621.0 325.2,648.6 297.6,642.4Z
M278.5,606.7 305.3,616.0 296.0,642.7 269.3,633.5Z
M254.3,596.0 279.8,608.1 267.7,633.7 242.2,621.6Z
M231.3,582.7 255.4,597.6 240.6,621.6 216.5,606.8Z
M209.8,567.1 232.2,584.5 214.8,606.8 192.5,589.5Z
M190.1,549.4 210.5,569.0 190.8,589.4 170.5,569.7Z"/>
<circle r="12" fill="red" stroke="none">
    <animateMotion dur="10s" repeatCount="indefinite">
        <mpath href="#pida"/>
    </animateMotion>
</circle>
</svg>
