<?xml version="1.0" standalone="no"?><!--
"/* FilePathName: theodorus/theodorus2Cgithub.svg */"
"/* Uploaded: 20:25:50,  Mon 19 Jul 2021 */"
"/* LineNo: 41 */"-->
<!DOCTYPE svg PUBLIC "-//W3C//DTD SVG 1.0//EN"
    "http://www.w3.org/TR/2001/REC-SVG-20010904/DTD/svg10.dtd">
<svg width="800" height="800" style="background:#afa;"
     xmlns="http://www.w3.org/2000/svg">
<title>Move Cows Around Spiral Loop</title>
<path id="pida" fill="none" stroke="#f55" stroke-width="39"
 d="M219.8 533.4L252.4 558.1,288.9 576.2,328.3 587.2,369.0 590.4,
409.6 585.7,448.4 573.2,484.0 553.2,514.8 526.4,539.5 493.8,
556.9 456.9,566.1 417.0,566.5 376.2,558.0 336.2,540.8 299.2,
515.7 266.9,483.9 241.4,446.9 224.0,406.8 216.0,366.0 218.1,
327.0 230.4,292.4 252.2,264.8 282.3,246.4 318.8,238.7 359.0,
242.8 399.7,258.7 437.4,285.3 468.5,320.2 489.7,360.2 498.4,
400.8 493.0,436.9 473.6,463.2 442.3,475.2 403.1,470.0 362.5,
447.3 328.3,411.1 309.0,370.1 311.4,338.0 337.2,331.0 377.8,
359.4 407.9,380.8 379.2,400.8 352.3,429.0 382.2,422.2 422.7,
390.3 448.5,349.4 451.2,313.1 432.2,290.2 398.3,284.6 357.7,
296.2 318.5,322.2 286.9,358.0 267.2,398.5 261.4,438.6 269.7,
473.7 290.5,500.6 321.3,516.9 358.7,521.5 399.3,514.4 439.6,
496.3 476.3,469.1 506.7,434.9 529.0,396.1 541.7,355.3 544.3,
315.1 536.8,277.9 519.9,245.8 494.8,220.2 462.9,202.6 426.1,
193.6 386.3,193.4 345.4,202.1 305.5,219.0 268.3,243.2 235.5,
273.7 208.3,309.0 187.8,347.6 174.7,388.1 169.4,428.9 172.1,
468.4 182.5,505.2 200.2,538.1 224.4,565.9 254.2,587.9 288.6,
603.4 326.4,612.0 366.3,613.4 407.1,607.7 447.5,595.2 486.3,
576.2 522.5,551.4 555.0,521.6 582.8,487.6 605.4,450.4 622.2,
410.9 632.7,370.3 636.7,329.6 634.3,289.7 625.5,251.7 610.5,
216.5 589.9,184.8 564.2"/>
<path id="pid" fill="#5f5" stroke="#474" stroke-width="0.5"
d="M213.6,514.4 239.5,537.1 226.0,552.4 200.1,529.8Z
M242.7,540.5 272.4,558.0 262.0,575.6 232.4,558.1Z
M276.2,560.8 308.6,572.4 301.7,591.6 269.3,580.1Z
M312.8,574.5 346.8,579.7 343.7,599.9 309.7,594.7Z
M351.3,581.0 385.7,579.5 386.6,599.9 352.2,601.4Z
M390.4,579.9 423.8,571.7 428.7,591.5 395.3,599.8Z
M428.5,571.3 459.6,556.6 468.3,575.1 437.2,589.8Z
M464.1,555.3 491.7,534.7 503.9,551.0 476.4,571.6Z
M495.8,532.5 518.5,506.7 533.9,520.2 511.1,546.0Z
M522.2,503.8 539.1,473.8 556.9,483.8 540.0,513.8Z
M542.1,470.2 552.3,437.4 571.8,443.5 561.5,476.3Z
M554.4,433.3 557.4,399.0 577.7,400.8 574.8,435.1Z
M558.7,394.6 554.1,360.5 574.4,357.8 578.9,391.9Z
M554.4,355.9 542.5,323.7 561.6,316.6 573.6,348.8Z
M541.8,319.2 522.9,290.4 539.9,279.2 558.8,307.9Z
M521.2,286.2 496.2,262.5 510.3,247.7 535.2,271.4Z
M493.6,258.8 463.9,241.6 474.1,223.9 503.9,241.1Z
M460.5,238.6 427.5,229.0 433.2,209.4 466.2,219.0Z
M423.6,226.9 389.2,225.6 390.0,205.2 424.4,206.5Z
M384.9,224.5 351.3,231.7 347.0,211.7 380.7,204.5Z
M346.9,231.7 316.2,247.2 307.0,229.0 337.8,213.5Z
M312.1,248.4 286.4,271.3 272.8,256.0 298.5,233.1Z
M282.7,273.5 264.0,302.3 246.9,291.2 265.6,262.4Z
M261.2,305.4 251.0,338.3 231.5,332.3 241.7,299.4Z
M249.2,341.9 248.6,376.3 228.2,376.0 228.8,341.6Z
M248.0,380.3 257.3,413.4 237.7,419.0 228.3,385.9Z
M257.9,417.4 276.6,446.2 259.5,457.3 240.8,428.5Z
M278.4,449.7 305.0,471.4 292.1,487.2 265.5,465.5Z
M307.8,474.0 339.9,486.2 332.7,505.3 300.5,493.1Z
M343.3,487.7 377.7,488.6 377.1,509.0 342.7,508.1Z
M381.2,488.7 413.9,477.9 420.3,497.3 387.7,508.1Z
M417.1,476.6 443.7,454.8 456.6,470.6 430.0,492.4Z
M446.0,452.5 462.5,422.3 480.4,432.1 463.9,462.3Z
M463.4,419.3 466.7,385.0 487.0,387.0 483.7,421.2Z
M466.0,382.1 454.7,349.6 473.9,342.9 485.3,375.4Z
M452.5,347.6 427.9,323.6 442.1,309.0 466.7,333.0Z
M425.0,323.4 391.8,314.3 397.2,294.6 430.4,303.7Z
M389.5,316.3 356.5,326.1 350.7,306.6 383.6,296.7Z
M356.5,329.6 335.7,357.0 319.4,344.7 340.2,317.3Z
M339.4,359.7 343.0,393.9 322.6,396.0 319.1,361.7Z
M349.0,390.8 379.4,407.0 369.8,425.0 339.4,408.8Z
M387.8,398.0 361.0,376.4 373.9,360.5 400.6,382.1Z
M411.1,369.4 380.8,353.0 390.5,335.1 420.8,351.5Z
M420.6,400.3 417.1,366.1 437.4,364.0 440.9,398.2Z
M403.7,430.3 424.4,402.8 440.7,415.1 420.0,442.6Z
M370.9,443.7 403.8,433.8 409.7,453.3 376.8,463.3Z
M335.4,436.9 368.7,445.8 363.4,465.5 330.2,456.6Z
M307.8,412.9 332.6,436.8 318.4,451.5 293.6,427.7Z
M294.0,378.6 305.6,411.0 286.4,417.9 274.8,385.5Z
M296.2,341.5 293.2,375.8 272.9,374.0 275.9,339.7Z
M313.3,308.2 297.1,338.5 279.1,328.8 295.4,298.5Z
M342.0,283.8 315.5,305.8 302.5,290.1 328.9,268.1Z
M377.6,271.3 345.1,282.5 338.5,263.1 371.0,252.0Z
M415.5,271.9 381.1,271.3 381.5,250.9 415.9,251.5Z
M451.2,285.2 418.9,273.3 425.9,254.2 458.2,266.0Z
M480.8,309.2 453.9,287.7 466.7,271.8 493.6,293.2Z
M501.6,341.2 482.6,312.6 499.6,301.3 518.6,330.0Z
M512.0,378.1 502.3,345.1 521.9,339.4 531.6,372.4Z
M511.2,416.5 511.4,382.1 531.8,382.2 531.6,416.6Z
M499.7,453.2 509.5,420.2 529.0,426.0 519.2,459.0Z
M478.5,485.3 496.9,456.3 514.2,467.2 495.8,496.2Z
M449.5,510.8 475.0,487.6 488.7,502.7 463.3,525.8Z
M414.9,527.8 445.5,512.0 454.8,530.1 424.3,545.9Z
M377.0,535.5 410.6,528.0 415.1,547.9 381.5,555.4Z
M338.4,533.6 372.8,534.6 372.2,555.0 337.8,554.0Z
M301.3,522.4 334.4,531.6 328.9,551.3 295.8,542.0Z
M268.0,502.6 297.9,519.5 287.9,537.3 257.9,520.4Z
M240.1,475.6 265.3,499.0 251.4,514.0 226.2,490.6Z
M219.1,442.9 238.3,471.5 221.4,482.9 202.2,454.3Z
M206.0,406.4 218.3,438.5 199.2,445.8 186.9,413.7Z
M201.2,367.8 206.1,401.8 185.9,404.7 181.0,370.7Z
M204.9,329.0 202.3,363.3 182.0,361.8 184.6,327.5Z
M216.8,292.0 206.9,324.9 187.4,319.1 197.2,286.1Z
M236.2,258.2 219.6,288.3 201.7,278.5 218.3,248.3Z
M262.2,229.1 239.7,255.2 224.3,241.9 246.7,215.8Z
M293.5,205.9 266.2,226.8 253.8,210.7 281.1,189.7Z
M328.9,189.4 297.9,204.5 289.0,186.1 320.0,171.1Z
M366.8,180.3 333.5,188.9 328.4,169.1 361.7,160.5Z
M405.9,178.7 371.5,180.6 370.4,160.2 404.7,158.3Z
M444.5,184.6 410.4,179.8 413.3,159.6 447.3,164.4Z
M481.3,197.8 448.8,186.6 455.4,167.3 487.9,178.5Z
M515.0,217.6 485.2,200.5 495.3,182.8 525.2,199.9Z
M544.5,243.3 518.4,220.9 531.6,205.4 557.8,227.8Z
M568.8,274.0 547.2,247.2 563.1,234.4 584.7,261.2Z
M587.1,308.6 570.8,278.3 588.8,268.6 605.1,298.9Z
M599.0,345.9 588.4,313.1 607.8,306.8 618.5,339.6Z
M604.2,384.7 599.5,350.6 619.8,347.9 624.4,381.9Z
M602.5,423.8 603.9,389.5 624.3,390.3 622.9,424.7Z
M594.0,462.1 601.4,428.5 621.4,432.9 614.0,466.5Z
M579.2,498.4 592.3,466.6 611.1,474.3 598.1,506.1Z
M558.4,531.6 576.7,502.5 594.0,513.4 575.7,542.5Z
M532.4,560.9 555.3,535.3 570.5,549.0 547.5,574.6Z
M501.8,585.5 528.7,564.1 541.4,580.1 514.5,601.5Z
M467.6,604.8 497.7,588.2 507.6,606.0 477.5,622.7Z
M430.8,618.3 463.2,606.8 470.0,626.1 437.6,637.5Z
M392.2,625.6 426.1,619.6 429.7,639.7 395.8,645.7Z
M353.0,626.8 387.4,626.3 387.7,646.7 353.3,647.2Z
M314.1,621.7 348.1,626.7 345.1,646.9 311.1,641.9Z
M276.4,610.6 309.2,620.9 303.1,640.4 270.3,630.0Z
M240.9,593.7 271.7,609.1 262.6,627.4 231.8,612.0Z
M208.4,571.6 236.4,591.6 224.6,608.2 196.6,588.2Z
M179.7,544.8 204.3,568.9 190.0,583.5 165.4,559.4Z"/>
<circle r="12" fill="red" stroke="none">
    <animateMotion dur="10s" repeatCount="indefinite">
        <mpath href="#pida"/>
    </animateMotion>
</circle>

<text font-size="19">
 <textPath id="tp" href="#pida" 
      alignment-baseline="after-edge" letter-spacing="-0.83">1&#160;&#160;&#160;&#160;&#160;&#160;&#160;&#160;2&#160;&#160;&#160;&#160;&#160;&#160;&#160;&#160;3&#160;&#160;&#160;&#160;&#160;&#160;&#160;&#160;4&#160;&#160;&#160;&#160;&#160;&#160;&#160;&#160;5&#160;&#160;&#160;&#160;&#160;&#160;&#160;&#160;6&#160;&#160;&#160;&#160;&#160;&#160;&#160;&#160;7&#160;&#160;&#160;&#160;&#160;&#160;&#160;&#160;8&#160;&#160;&#160;&#160;&#160;&#160;&#160;&#160;9&#160;&#160;&#160;&#160;&#160;&#160;&#160;&#160;10&#160;&#160;&#160;&#160;&#160;&#160;11&#160;&#160;&#160;&#160;&#160;&#160;12&#160;&#160;&#160;&#160;&#160;&#160;13&#160;&#160;&#160;&#160;&#160;&#160;14&#160;&#160;&#160;&#160;&#160;&#160;15&#160;&#160;&#160;&#160;&#160;&#160;16&#160;&#160;&#160;&#160;&#160;&#160;17&#160;&#160;&#160;&#160;&#160;&#160;18&#160;&#160;&#160;&#160;&#160;&#160;19&#160;&#160;&#160;&#160;&#160;&#160;20&#160;&#160;&#160;&#160;&#160;&#160;21&#160;&#160;&#160;&#160;&#160;&#160;22&#160;&#160;&#160;&#160;&#160;&#160;23&#160;&#160;&#160;&#160;&#160;&#160;24&#160;&#160;&#160;&#160;&#160;&#160;25&#160;&#160;&#160;&#160;&#160;&#160;26&#160;&#160;&#160;&#160;&#160;&#160;27&#160;&#160;&#160;&#160;&#160;&#160;28&#160;&#160;&#160;&#160;&#160;&#160;29&#160;&#160;&#160;&#160;&#160;&#160;30&#160;&#160;&#160;&#160;&#160;&#160;31&#160;&#160;&#160;&#160;&#160;&#160;32&#160;&#160;&#160;&#160;&#160;&#160;33&#160;&#160;&#160;&#160;&#160;&#160;34&#160;&#160;&#160;&#160;&#160;&#160;35&#160;&#160;&#160;&#160;&#160;&#160;36&#160;&#160;&#160;&#160;&#160;&#160;37&#160;&#160;&#160;&#160;&#160;&#160;38&#160;&#160;&#160;&#160;&#160;&#160;39&#160;&#160;&#160;&#160;&#160;&#160;40&#160;&#160;&#160;&#160;&#160;&#160;41&#160;&#160;&#160;&#160;&#160;&#160;42&#160;&#160;&#160;43&#160;&#160;&#160;&#160;&#160;&#160;44&#160;&#160;&#160;&#160;&#160;&#160;45&#160;&#160;&#160;&#160;&#160;&#160;46&#160;&#160;&#160;&#160;&#160;&#160;47&#160;&#160;&#160;&#160;&#160;&#160;48&#160;&#160;&#160;&#160;&#160;&#160;49&#160;&#160;&#160;&#160;&#160;&#160;50&#160;&#160;&#160;&#160;&#160;&#160;51&#160;&#160;&#160;&#160;&#160;&#160;52&#160;&#160;&#160;&#160;&#160;&#160;53&#160;&#160;&#160;&#160;&#160;&#160;54&#160;&#160;&#160;&#160;&#160;&#160;55&#160;&#160;&#160;&#160;&#160;&#160;56&#160;&#160;&#160;&#160;&#160;&#160;57&#160;&#160;&#160;&#160;&#160;&#160;58&#160;&#160;&#160;&#160;&#160;&#160;59&#160;&#160;&#160;&#160;&#160;&#160;60&#160;&#160;&#160;&#160;&#160;&#160;61&#160;&#160;&#160;&#160;&#160;&#160;62&#160;&#160;&#160;&#160;&#160;&#160;63&#160;&#160;&#160;&#160;&#160;&#160;64&#160;&#160;&#160;&#160;&#160;&#160;65&#160;&#160;&#160;&#160;&#160;&#160;66&#160;&#160;&#160;&#160;&#160;&#160;67&#160;&#160;&#160;&#160;&#160;&#160;68&#160;&#160;&#160;&#160;&#160;&#160;69&#160;&#160;&#160;&#160;&#160;&#160;70&#160;&#160;&#160;&#160;&#160;&#160;71&#160;&#160;&#160;&#160;&#160;&#160;72&#160;&#160;&#160;&#160;&#160;&#160;73&#160;&#160;&#160;&#160;&#160;&#160;74&#160;&#160;&#160;&#160;&#160;&#160;75&#160;&#160;&#160;&#160;&#160;&#160;76&#160;&#160;&#160;&#160;&#160;&#160;77&#160;&#160;&#160;&#160;&#160;&#160;78&#160;&#160;&#160;&#160;&#160;&#160;79&#160;&#160;&#160;&#160;&#160;&#160;80&#160;&#160;&#160;&#160;&#160;&#160;81&#160;&#160;&#160;&#160;&#160;&#160;82&#160;&#160;&#160;&#160;&#160;&#160;83&#160;&#160;&#160;&#160;&#160;&#160;84&#160;&#160;&#160;&#160;&#160;&#160;85&#160;&#160;&#160;&#160;&#160;&#160;86&#160;&#160;&#160;&#160;&#160;&#160;87&#160;&#160;&#160;&#160;&#160;&#160;88&#160;&#160;&#160;&#160;&#160;&#160;89&#160;&#160;&#160;&#160;&#160;&#160;90&#160;&#160;&#160;&#160;&#160;&#160;91&#160;&#160;&#160;&#160;&#160;&#160;92&#160;&#160;&#160;&#160;&#160;&#160;93&#160;&#160;&#160;&#160;&#160;&#160;94&#160;&#160;&#160;&#160;&#160;&#160;95&#160;&#160;&#160;&#160;&#160;&#160;96&#160;&#160;&#160;&#160;&#160;&#160;97&#160;&#160;&#160;&#160;&#160;&#160;98&#160;&#160;&#160;&#160;&#160;&#160;99&#160;&#160;&#160;&#160;&#160;&#160;100&#160;&#160;&#160;&#160;&#160;&#160;101&#160;&#160;&#160;&#160;&#160;&#160;102&#160;&#160;&#160;&#160;&#160;&#160;103</textPath>
</svg>
