<?xml version="1.0" standalone="no"?><!--
"/* FilePathName: MultiSpirelLoop.svg */"
"/* Uploaded: 22:08:38,  Sat 17 Jul 2021 */"
"/* LineNo: 831 */" -->  
<svg height="830" width="830"
     style="border:0px solid #000; background:#cd3;"
     xmlns="http://www.w3.org/2000/svg"
     xmlns:xlink="http://www.w3.org/1999/xlink">
  <path id="fr" fill="None" stroke="green" stroke-width="38"
d="M74.9 199.0C77.2 195.8,79.5 192.5,81.8 189.3,84.2 186.2,
86.6 183.0,89.0 179.9,91.5 176.8,94.0 173.8,96.5 170.7,
99.1 167.7,101.6 164.7,104.2 161.8,106.9 158.8,109.5 155.9,
112.2 153.1,115.0 150.2,117.7 147.4,120.5 144.6,123.3 141.8,
126.1 139.1,129.0 136.4,131.8 133.7,134.7 131.1,137.7 128.5,
140.6 125.9,143.6 123.4,146.6 120.9,149.6 118.4,152.7 115.9,
155.7 113.5,158.8 111.1,161.9 108.7,165.1 106.4,168.2 104.1,
171.4 101.9,174.6 99.6,177.8 97.4,181.1 95.3,184.4 93.2,
187.6 91.1,190.9 89.0,194.3 87.0,197.6 85.0,201.0 83.0,
204.3 81.1,207.7 79.2,211.1 77.4,214.6 75.6,218.0 73.8,
221.5 72.0,224.9 70.3,228.4 68.6,231.9 67.0,235.5 65.4,
239.0 63.8,242.5 62.3,246.1 60.8,249.7 59.4,253.3 57.9,
256.9 56.5,260.5 55.2,264.1 53.9,267.7 52.6,271.4 51.4,
275.0 50.2,278.7 49.0,282.4 47.9,286.1 46.8,289.8 45.8,
293.5 44.7,297.2 43.8,300.9 42.8,304.6 41.9,308.4 41.1,
312.1 40.2,315.8 39.5,319.6 38.7,323.3 38.0,327.1 37.3,
330.9 36.7,334.7 36.1,338.4 35.5,342.2 35.0,346.0 34.5,
349.8 34.1,353.6 33.7,357.4 33.3,361.2 33.0,364.9 32.7,
368.7 32.4,372.5 32.2,376.3 32.1,380.1 31.9,383.9 31.8,
387.7 31.8,391.5 31.7,395.3 31.7,399.1 31.8,402.9 31.9,
406.7 32.0,410.4 32.2,414.2 32.4,418.0 32.6,421.7 32.9,
425.5 33.2,429.3 33.6,433.0 34.0,436.8 34.4,440.5 34.9,
444.2 35.4,448.0 35.9,451.7 36.5,455.4 37.1,459.1 37.7,
462.8 38.4,466.5 39.2,470.2 39.9,473.8 40.7,477.5 41.5,
481.1 42.4,484.8 43.3,488.4 44.3,492.0 45.2,495.6 46.3,
499.2 47.3,502.8 48.4,506.3 49.5,509.9 50.7,513.4 51.9,
517.0 53.1,520.5 54.3,524.0 55.6,527.4 57.0,530.9 58.3,
534.4 59.7,537.8 61.2,541.2 62.6,544.6 64.1,548.0 65.6,
551.4 67.2,554.7 68.8,558.1 70.4,561.4 72.1,564.7 73.8,
567.9 75.5,571.2 77.3,574.4 79.1,577.7 80.9,580.9 82.7,
584.0 84.6,587.2 86.5,590.3 88.5,593.4 90.5,596.5 92.5,
599.6 94.5,602.7 96.6,605.7 98.7,608.7 100.8,611.7 102.9,
614.6 105.1,617.6 107.3,620.5 109.6,623.4 111.8,626.2 114.1,
629.1 116.4,631.9 118.8,634.7 121.2,637.5 123.6,640.2 126.0,
642.9 128.5,645.6 130.9,648.3 133.4,650.9 136.0,653.5 138.5,
656.1 141.1,658.6 143.7,661.2 146.3,663.7 149.0,666.1 151.7,
668.6 154.4,671.0 157.1,673.4 159.8,675.7 162.6,678.1 165.4,
680.4 168.2,682.6 171.1,684.9 173.9,687.1 176.8,689.3 179.7,
691.4 182.6,693.5 185.5,695.6 188.5,697.7 191.5,699.7 194.5,
701.7 197.5,703.7 200.5,705.6 203.6,707.5 206.6,709.4 209.7,
711.2 212.8,713.0 215.9,714.8 219.1,716.5 222.2,718.2 225.4,
719.9 228.6,721.5 231.8,723.2 235.0,724.7 238.2,726.3 241.4,
727.8 244.7,729.3 248.0,730.7 251.3,732.1 254.5,733.5 257.8,
734.8 261.2,736.1 264.5,737.4 267.8,738.6 271.2,739.9 274.5,
741.0 277.9,742.2 281.3,743.3 284.7,744.3 288.1,745.4 291.5,
746.4 294.9,747.3 298.3,748.2 301.8,749.1 305.2,750.0 308.7,
750.8 312.1,751.6 315.6,752.4 319.1,753.1 322.5,753.8 326.0,
754.4 329.5,755.0 333.0,755.6 336.5,756.1 340.0,756.7 343.5,
757.1 347.0,757.6 350.5,758.0 354.0,758.3 357.5,758.7 361.0,
758.9 364.5,759.2 368.0,759.4 371.5,759.6 375.0,759.8 378.6,
759.9 382.1,760.0 385.6,760.0 389.1,760.0 392.6,760.0 396.1,
759.9 399.6,759.9 403.1,759.7 406.6,759.6 410.1,759.4 413.6,
759.1 417.1,758.9 420.6,758.6 424.1,758.2 427.5,757.8 431.0,
757.4 434.5,757.0 437.9,756.5 441.4,756.0 444.8,755.5 448.3,
754.9 451.7,754.3 455.1,753.6 458.5,752.9 462.0,752.2 465.4,
751.5 468.7,750.7 472.1,749.9 475.5,749.0 478.9,748.2 482.2,
747.2 485.5,746.3 488.9,745.3 492.2,744.3 495.5,743.3 498.8,
742.2 502.1,741.1 505.3,739.9 508.6,738.8 511.8,737.5 515.0,
736.3 518.3,735.0 521.5,733.7 524.6,732.4 527.8,731.0 531.0,
729.7 534.1,728.2 537.2,726.8 540.3,725.3 543.4,723.8 546.5,
722.2 549.6,720.7 552.6,719.0 555.6,717.4 558.6,715.8 561.6,
714.1 564.6,712.3 567.5,710.6 570.5,708.8 573.4,707.0 576.3,
705.2 579.1,703.3 582.0,701.4 584.8,699.5 587.6,697.6 590.4,
695.6 593.2,693.6 595.9,691.6 598.7,689.5 601.4,687.4 604.1,
685.3 606.7,683.2 609.4,681.1 612.0,678.9 614.6,676.7 617.1,
674.5 619.7,672.2 622.2,669.9 624.7,667.6 627.2,665.3 629.6,
663.0 632.0,660.6 634.4,658.2 636.8,655.8 639.2,653.4 641.5,
650.9 643.8,648.4 646.0,645.9 648.3,643.4 650.5,640.9 652.7,
638.3 654.9,635.7 657.0,633.1 659.1,630.5 661.2,627.9 663.3,
625.2 665.3,622.5 667.3,619.8 669.3,617.1 671.2,614.4 673.1,
611.6 675.0,608.9 676.9,606.1 678.7,603.3 680.5,600.5 682.3,
597.6 684.0,594.8 685.7,591.9 687.4,589.0 689.1,586.1 690.7,
583.2 692.3,580.3 693.8,577.4 695.4,574.4 696.9,571.5 698.4,
568.5 699.8,565.5 701.2,562.5 702.6,559.5 703.9,556.4 705.3,
553.4 706.5,550.4 707.8,547.3 709.0,544.2 710.2,541.1 711.4,
538.1 712.5,535.0 713.6,531.8 714.7,528.7 715.7,525.6 716.7,
522.5 717.7,519.3 718.6,516.2 719.5,513.0 720.4,509.9 721.3,
506.7 722.1,503.5 722.8,500.3 723.6,497.1 724.3,493.9 725.0,
490.7 725.6,487.5 726.3,484.3 726.8,481.1 727.4,477.9 727.9,
474.7 728.4,471.5 728.8,468.2 729.3,465.0 729.7,461.8 730.0,
458.6 730.3,455.3 730.6,452.1 730.9,448.9 731.1,445.6 731.3,
442.4 731.5,439.2 731.6,435.9 731.7,432.7 731.8,429.5 731.8,
426.2 731.8,423.0 731.8,419.8 731.7,416.6 731.6,413.4 731.5,
410.1 731.3,406.9 731.1,403.7 730.9,400.5 730.6,397.3 730.3,
394.1 730.0,390.9 729.7,387.8 729.3,384.6 728.8,381.4 728.4,
378.2 727.9,375.1 727.4,371.9 726.9,368.8 726.3,365.7 725.7,
362.5 725.0,359.4 724.4,356.3 723.7,353.2 722.9,350.1 722.2,
347.0 721.4,343.9 720.6,340.9 719.7,337.8 718.8,334.8 717.9,
331.8 717.0,328.7 716.0,325.7 715.0,322.7 714.0,319.8 712.9,
316.8 711.8,313.8 710.7,310.9 709.6,307.9 708.4,305.0 707.2,
302.1 706.0,299.2 704.7,296.4 703.4,293.5 702.1,290.6 700.7,
287.8 699.4,285.0 698.0,282.2 696.5,279.4 695.1,276.6 693.6,
273.9 692.1,271.2 690.5,268.4 689.0,265.7 687.4,263.1 685.8,
260.4 684.1,257.8 682.5,255.1 680.8,252.5 679.1,249.9 677.3,
247.4 675.5,244.8 673.8,242.3 671.9,239.8 670.1,237.3 668.2,
234.8 666.3,232.3 664.4,229.9 662.5,227.5 660.5,225.1 658.6,
222.7 656.6,220.4 654.5,218.1 652.5,215.8 650.4,213.5 648.3,
211.2 646.2,209.0 644.1,206.8 641.9,204.6 639.7,202.4 637.5,
200.3 635.3,198.2 633.1,196.1 630.8,194.0 628.5,192.0 626.2,
189.9 623.9,187.9 621.6,186.0 619.2,184.0 616.9,182.1 614.5,
180.2 612.1,178.3 609.6,176.5 607.2,174.7 604.7,172.9 602.3,
171.1 599.8,169.3 597.3,167.6 594.7,165.9 592.2,164.3 589.6,
162.6 587.1,161.0 584.5,159.4 581.9,157.9 579.3,156.4 576.6,
154.9 574.0,153.4 571.3,151.9 568.7,150.5 566.0,149.1 563.3,
147.8 560.6,146.4 557.9,145.1 555.1,143.8 552.4,142.6 549.6,
141.4 546.9,140.2 544.1,139.0 541.3,137.9 538.5,136.8 535.7,
135.7 532.9,134.6 530.1,133.6 527.3,132.6 524.4,131.7 521.6,
130.7 518.7,129.8 515.9,128.9 513.0,128.1 510.1,127.3 507.2,
126.5 504.3,125.7 501.4,125.0 498.5,124.3 495.6,123.6 492.7,
123.0 489.8,122.4 486.9,121.8 484.0,121.3 481.0,120.7 478.1,
120.2 475.2,119.8 472.2,119.3 469.3,118.9 466.4,118.6 463.4,
118.2 460.5,117.9 457.5,117.6 454.6,117.4 451.6,117.2 448.7,
117.0 445.7,116.8 442.8,116.7 439.8,116.6 436.8,116.5 433.9,
116.4 430.9,116.4 428.0,116.4 425.1,116.5 422.1,116.6 419.2,
116.7 416.2,116.8 413.3,117.0 410.4,117.2 407.4,117.4 404.5,
117.6 401.6,117.9 398.7,118.2 395.8,118.5 392.9,118.9 390.0,
119.3 387.1,119.7 384.2,120.2 381.3,120.7 378.4,121.2 375.5,
121.7 372.7,122.3 369.8,122.9 367.0,123.5 364.1,124.1 361.3,
124.8 358.5,125.5 355.7,126.3 352.8,127.0 350.1,127.8 347.3,
128.6 344.5,129.5 341.7,130.3 339.0,131.2 336.2,132.2 333.5,
133.1 330.8,134.1 328.0,135.1 325.3,136.1 322.6,137.2 320.0,
138.3 317.3,139.4 314.7,140.5 312.0,141.7 309.4,142.9 306.8,
144.1 304.2,145.3 301.6,146.6 299.0,147.9 296.5,149.2 293.9,
150.5 291.4,151.9 288.9,153.3 286.4,154.7 283.9,156.1 281.4,
157.6 279.0,159.1 276.5,160.6 274.1,162.1 271.7,163.6 269.4,
165.2 267.0,166.8 264.6,168.4 262.3,170.1 260.0,171.7 257.7,
173.4 255.4,175.1 253.2,176.9 250.9,178.6 248.7,180.4 246.5,
182.2 244.3,184.0 242.2,185.8 240.0,187.7 237.9,189.5 235.8,
191.4 233.7,193.4 231.6,195.3 229.6,197.2 227.6,199.2 225.6,
201.2 223.6,203.2 221.6,205.2 219.7,207.3 217.8,209.3 215.9,
211.4 214.0,213.5 212.2,215.6 210.4,217.8 208.6,219.9 206.8,
222.1 205.0,224.2 203.3,226.4 201.6,228.6 199.9,230.9 198.2,
233.1 196.6,235.4 195.0,237.6 193.4,239.9 191.8,242.2 190.2,
244.5 188.7,246.9 187.2,249.2 185.7,251.6 184.3,253.9 182.9,
256.3 181.5,258.7 180.1,261.1 178.7,263.5 177.4,266.0 176.1,
268.4 174.8,270.8 173.6,273.3 172.4,275.8 171.2,278.3 170.0,
280.7 168.9,283.2 167.7,285.8 166.6,288.3 165.6,290.8 164.5,
293.3 163.5,295.9 162.5,298.4 161.6,301.0 160.6,303.6 159.7,
306.2 158.8,308.7 158.0,311.3 157.1,313.9 156.3,316.5 155.5,
319.1 154.8,321.8 154.1,324.4 153.4,327.0 152.7,329.6 152.1,
332.3 151.4,334.9 150.8,337.5 150.3,340.2 149.7,342.8 149.2,
345.5 148.7,348.2 148.3,350.8 147.9,353.5 147.5,356.1 147.1,
358.8 146.7,361.5 146.4,364.1 146.1,366.8 145.8,369.5 145.6,
372.2 145.4,374.8 145.2,377.5 145.0,380.2 144.9,382.8 144.8,
385.5 144.7,388.2 144.7,390.9 144.6,393.5 144.7,396.2 144.7,
398.8 144.7,401.5 144.8,404.2 144.9,406.8 145.1,409.5 145.2,
412.1 145.4,414.7 145.6,417.4 145.9,420.0 146.1,422.7 146.4,
425.3 146.7,427.9 147.1,430.5 147.5,433.1 147.9,435.7 148.3,
438.3 148.7,440.9 149.2,443.5 149.7,446.1 150.2,448.6 150.8,
451.2 151.4,453.8 152.0,456.3 152.6,458.8 153.2,461.4 153.9,
463.9 154.6,466.4 155.4,468.9 156.1,471.4 156.9,473.9 157.7,
476.4 158.5,478.8 159.4,481.3 160.2,483.7 161.1,486.1 162.0,
488.6 163.0,491.0 164.0,493.4 165.0,495.8 166.0,498.1 167.0,
500.5 168.1,502.8 169.2,505.2 170.3,507.5 171.4,509.8 172.5,
512.1 173.7,514.4 174.9,516.7 176.1,518.9 177.4,521.2 178.6,
523.4 179.9,525.6 181.2,527.8 182.6,530.0 183.9,532.2 185.3,
534.3 186.7,536.5 188.1,538.6 189.5,540.7 191.0,542.8 192.4,
544.9 193.9,546.9 195.4,549.0 197.0,551.0 198.5,553.0 200.1,
555.0 201.7,556.9 203.3,558.9 204.9,560.8 206.6,562.7 208.2,
564.7 209.9,566.5 211.6,568.4 213.3,570.2 215.0,572.1 216.8,
573.9 218.6,575.7 220.3,577.4 222.1,579.2 224.0,580.9 225.8,
582.6 227.6,584.3 229.5,586.0 231.4,587.6 233.3,589.3 235.2,
590.9 237.1,592.5 239.1,594.0 241.0,595.6 243.0,597.1 245.0,
598.6 247.0,600.1 249.0,601.5 251.0,603.0 253.0,604.4 255.1,
605.8 257.1,607.2 259.2,608.5 261.3,609.9 263.4,611.2 265.5,
612.5 267.6,613.7 269.8,615.0 271.9,616.2 274.1,617.4 276.2,
618.6 278.4,619.7 280.6,620.8 282.8,621.9 285.0,623.0 287.2,
624.1 289.4,625.1 291.7,626.1 293.9,627.1 296.2,628.1 298.4,
629.0 300.7,630.0 303.0,630.9 305.3,631.7 307.5,632.6 309.8,
633.4 312.1,634.2 314.5,635.0 316.8,635.7 319.1,636.5 321.4,
637.2 323.8,637.9 326.1,638.5 328.4,639.2 330.8,639.8 333.1,
640.3 335.5,640.9 337.9,641.4 340.2,642.0 342.6,642.5 345.0,
642.9 347.3,643.4 349.7,643.8 352.1,644.2 354.5,644.5 356.9,
644.9 359.2,645.2 361.6,645.5 364.0,645.8 366.4,646.0 368.8,
646.2 371.2,646.4 373.6,646.6 376.0,646.8 378.4,646.9 380.8,
647.0 383.1,647.1 385.5,647.1 387.9,647.1 390.3,647.1 392.7,
647.1 395.1,647.1 397.5,647.0 399.8,646.9 402.2,646.8 404.6,
646.7 407.0,646.5 409.3,646.3 411.7,646.1 414.1,645.9 416.4,
645.6 418.8,645.4 421.1,645.1 423.5,644.7 425.8,644.4 428.1,
644.0 430.4,643.6 432.8,643.2 435.1,642.8 437.4,642.3 439.7,
641.8 442.0,641.3 444.3,640.8 446.6,640.2 448.8,639.6 451.1,
639.0 453.4,638.4 455.6,637.8 457.9,637.1 460.1,636.4 462.3,
635.7 464.6,635.0 466.8,634.2 469.0,633.4 471.2,632.6 473.3,
631.8 475.5,631.0 477.7,630.1 479.8,629.3 482.0,628.3 484.1,
627.4 486.2,626.5 488.3,625.5 490.4,624.5 492.5,623.5 494.6,
622.5 496.7,621.5 498.7,620.4 500.7,619.3 502.8,618.2 504.8,
617.1 506.8,616.0 508.8,614.8 510.7,613.6 512.7,612.4 514.7,
611.2 516.6,610.0 518.5,608.7 520.4,607.5 522.3,606.2 524.2,
604.9 526.1,603.5 527.9,602.2 529.7,600.8 531.6,599.5 533.4,
598.1 535.1,596.7 536.9,595.2 538.7,593.8 540.4,592.3 542.1,
590.9 543.9,589.4 545.6,587.9 547.2,586.3 548.9,584.8 550.5,
583.2 552.2,581.7 553.8,580.1 555.4,578.5 556.9,576.9 558.5,
575.3 560.0,573.6 561.6,572.0 563.1,570.3 564.5,568.6 566.0,
566.9 567.5,565.2 568.9,563.5 570.3,561.7 571.7,560.0 573.1,
558.2 574.4,556.5 575.8,554.7 577.1,552.9 578.4,551.1 579.7,
549.3 581.0,547.4 582.2,545.6 583.4,543.8 584.6,541.9 585.8,
540.0 587.0,538.1 588.1,536.2 589.2,534.3 590.3,532.4 591.4,
530.5 592.5,528.6 593.5,526.6 594.6,524.7 595.6,522.7 596.6,
520.8 597.5,518.8 598.5,516.8 599.4,514.9 600.3,512.9 601.2,
510.9 602.0,508.9 602.9,506.8 603.7,504.8 604.5,502.8 605.3,
500.8 606.0,498.7 606.7,496.7 607.5,494.6 608.1,492.6 608.8,
490.5 609.5,488.4 610.1,486.4 610.7,484.3 611.3,482.2 611.8,
480.1 612.4,478.1 612.9,476.0 613.4,473.9 613.9,471.8 614.3,
469.7 614.8,467.6 615.2,465.5 615.6,463.4 616.0,461.3 616.3,
459.2 616.6,457.1 616.9,455.0 617.2,452.8 617.5,450.7 617.7,
448.6 617.9,446.5 618.1,444.4 618.3,442.3 618.5,440.2 618.6,
438.1 618.7,435.9 618.8,433.8 618.9,431.7 618.9,429.6 619.0,
427.5 619.0,425.4 619.0,423.3 618.9,421.2 618.9,419.1 618.8,
417.0 618.7,414.9 618.6,412.8 618.4,410.8 618.3,408.7 618.1,
406.6 617.9,404.5 617.6,402.5 617.4,400.4 617.1,398.3 616.9,
396.3 616.5,394.2 616.2,392.2 615.9,390.1 615.5,388.1 615.1,
386.1 614.7,384.0 614.3,382.0 613.8,380.0 613.4,378.0 612.9,
376.0 612.4,374.0 611.8,372.0 611.3,370.1 610.7,368.1 610.1,
366.1 609.5,364.2 608.9,362.2 608.3,360.3 607.6,358.4 606.9,
356.5 606.2,354.5 605.5,352.6 604.8,350.8 604.0,348.9 603.2,
347.0 602.5,345.1 601.6,343.3 600.8,341.4 600.0,339.6 599.1,
337.8 598.2,336.0 597.3,334.2 596.4,332.4 595.5,330.6 594.5,
328.8 593.6,327.1 592.6,325.3 591.6,323.6 590.5,321.9 589.5,
320.2 588.5,318.5 587.4,316.8 586.3,315.1 585.2,313.4 584.1,
311.8 583.0,310.2 581.8,308.5 580.7,306.9 579.5,305.3 578.3,
303.8 577.1,302.2 575.9,300.6 574.6,299.1 573.4,297.6 572.1,
296.1 570.8,294.6 569.5,293.1 568.2,291.6 566.9,290.2 565.6,
288.7 564.2,287.3 562.9,285.9 561.5,284.5 560.1,283.1 558.7,
281.8 557.3,280.4 555.9,279.1 554.4,277.8 553.0,276.5 551.5,
275.2 550.1,273.9 548.6,272.7 547.1,271.4 545.6,270.2 544.1,
269.0 542.5,267.8 541.0,266.6 539.4,265.5 537.9,264.4 536.3,
263.2 534.7,262.1 533.1,261.1 531.5,260.0 529.9,258.9 528.3,
257.9 526.7,256.9 525.1,255.9 523.4,254.9 521.8,253.9 520.1,
253.0 518.4,252.1 516.8,251.2 515.1,250.3 513.4,249.4 511.7,
248.5 510.0,247.7 508.3,246.9 506.5,246.1 504.8,245.3 503.1,
244.5 501.3,243.8 499.6,243.1 497.8,242.4 496.1,241.7 494.3,
241.0 492.6,240.3 490.8,239.7 489.0,239.1 487.2,238.5 485.5,
237.9 483.7,237.3 481.9,236.8 480.1,236.3 478.3,235.8 476.5,
235.3 474.7,234.8 472.8,234.4 471.0,233.9 469.2,233.5 467.4,
233.1 465.6,232.8 463.7,232.4 461.9,232.1 460.1,231.7 458.3,
231.4 456.4,231.2 454.6,230.9 452.8,230.7 450.9,230.4 449.1,
230.2 447.3,230.0 445.4,229.9 443.6,229.7 441.8,229.6 439.9,
229.5 438.1,229.4 436.3,229.3 434.4,229.2 432.6,229.2 430.8,
229.2 429.0,229.2 427.1,229.2 425.3,229.2 423.5,229.3 421.7,
229.4 419.8,229.5 418.0,229.6 416.2,229.7 414.4,229.8 412.6,
230.0 410.8,230.2 409.0,230.4 407.2,230.6 405.4,230.8 403.6,
231.1 401.8,231.4 400.1,231.6 398.3,231.9 396.5,232.3 394.8,
232.6 393.0,233.0 391.2,233.3 389.5,233.7 387.7,234.1 386.0,
234.6 384.3,235.0 382.6,235.5 380.8,236.0 379.1,236.5 377.4,
237.0 375.7,237.5 374.0,238.0 372.3,238.6 370.7,239.2 369.0,
239.8 367.3,240.4 365.7,241.0 364.0,241.6 362.4,242.3 360.8,
243.0 359.1,243.7 357.5,244.4 355.9,245.1 354.3,245.8 352.7,
246.6 351.2,247.3 349.6,248.1 348.0,248.9 346.5,249.7 344.9,
250.5 343.4,251.4 341.9,252.2 340.4,253.1 338.9,254.0 337.4,
254.9 335.9,255.8 334.4,256.7 333.0,257.7 331.5,258.6 330.1,
259.6 328.7,260.6 327.3,261.5 325.9,262.5 324.5,263.6 323.1,
264.6 321.7,265.6 320.4,266.7 319.0,267.8 317.7,268.8 316.4,
269.9 315.1,271.0 313.8,272.2 312.5,273.3 311.2,274.4 310.0,
275.6 308.7,276.7 307.5,277.9 306.3,279.1 305.1,280.3 303.9,
281.5 302.7,282.7 301.6,283.9 300.4,285.2 299.3,286.4 298.2,
287.7 297.0,288.9 296.0,290.2 294.9,291.5 293.8,292.8 292.8,
294.1 291.7,295.4 290.7,296.7 289.7,298.1 288.7,299.4 287.7,
300.8 286.7,302.1 285.8,303.5 284.9,304.8 283.9,306.2 283.0,
307.6 282.1,309.0 281.3,310.4 280.4,311.8 279.6,313.2 278.7,
314.7 277.9,316.1 277.1,317.5 276.3,319.0 275.6,320.4 274.8,
321.9 274.1,323.3 273.3,324.8 272.6,326.3 271.9,327.7 271.3,
329.2 270.6,330.7 270.0,332.2 269.3,333.7 268.7,335.2 268.1,
336.7 267.6,338.2 267.0,339.7 266.4,341.2 265.9,342.8 265.4,
344.3 264.9,345.8 264.4,347.3 263.9,348.9 263.5,350.4 263.0,
351.9 262.6,353.5 262.2,355.0 261.8,356.6 261.5,358.1 261.1,
359.7 260.8,361.2 260.4,362.8 260.1,364.3 259.8,365.9 259.6,
367.4 259.3,369.0 259.0,370.6 258.8,372.1 258.6,373.7 258.4,
375.2 258.2,376.8 258.1,378.3 257.9,379.9 257.8,381.5 257.7,
383.0 257.6,384.6 257.5,386.1 257.4,387.7 257.4,389.2 257.3,
390.8 257.3,392.3 257.3,393.9 257.3,395.4 257.3,397.0 257.4,
398.5 257.4,400.0 257.5,401.6 257.6,403.1 257.7,404.6 257.8,
406.2 257.9,407.7 258.1,409.2 258.3,410.7 258.4,412.2 258.6,
413.7 258.8,415.3 259.1,416.8 259.3,418.2 259.6,419.7 259.8,
421.2 260.1,422.7 260.4,424.2 260.7,425.7 261.1,427.1 261.4,
428.6 261.8,430.1 262.1,431.5 262.5,432.9 262.9,434.4 263.3,
435.8 263.8,437.3 264.2,438.7 264.7,440.1 265.1,441.5 265.6,
442.9 266.1,444.3 266.6,445.7 267.1,447.1 267.7,448.4 268.2,
449.8 268.8,451.2 269.4,452.5 270.0,453.9 270.6,455.2 271.2,
456.5 271.8,457.8 272.5,459.2 273.1,460.5 273.8,461.8 274.5,
463.0 275.2,464.3 275.9,465.6 276.6,466.9 277.3,468.1 278.0,
469.3 278.8,470.6 279.6,471.8 280.3,473.0 281.1,474.2 281.9,
475.4 282.7,476.6 283.5,477.8 284.4,478.9 285.2,480.1 286.1,
481.2 286.9,482.4 287.8,483.5 288.7,484.6 289.6,485.7 290.5,
486.8 291.4,487.9 292.3,489.0 293.3,490.0 294.2,491.1 295.2,
492.1 296.1,493.2 297.1,494.2 298.1,495.2 299.1,496.2 300.1,
497.1 301.1,498.1 302.1,499.1 303.1,500.0 304.1,501.0 305.2,
501.9 306.2,502.8 307.3,503.7 308.4,504.6 309.4,505.5 310.5,
506.3 311.6,507.2 312.7,508.0 313.8,508.8 314.9,509.7 316.0,
510.5 317.2,511.3 318.3,512.0 319.4,512.8 320.6,513.6 321.7,
514.3 322.9,515.0 324.0,515.7 325.2,516.4 326.4,517.1 327.5,
517.8 328.7,518.5 329.9,519.1 331.1,519.7 332.3,520.4 333.5,
521.0 334.7,521.6 335.9,522.2 337.2,522.7 338.4,523.3 339.6,
523.8 340.8,524.4 342.1,524.9 343.3,525.4 344.5,525.9 345.8,
526.4 347.0,526.8 348.3,527.3 349.5,527.7 350.8,528.1 352.1,
528.5 353.3,528.9 354.6,529.3 355.8,529.7 357.1,530.1 358.4,
530.4 359.7,530.7 360.9,531.0 362.2,531.4 363.5,531.6 364.8,
531.9 366.0,532.2 367.3,532.4 368.6,532.7 369.9,532.9 371.2,
533.1 372.5,533.3 373.7,533.5 375.0,533.7 376.3,533.8 377.6,
534.0 378.9,534.1 380.2,534.2 381.4,534.3 382.7,534.4 384.0,
534.5 385.3,534.5 386.6,534.6 387.8,534.6 389.1,534.6 390.4,
534.7 391.7,534.7 392.9,534.6 394.2,534.6 395.5,534.6 396.7,
534.5 398.0,534.5 399.3,534.4 400.5,534.3 401.8,534.2 403.0,
534.1 404.3,533.9 405.5,533.8 406.8,533.6 408.0,533.5 409.3,
533.3 410.5,533.1 411.7,532.9 412.9,532.7 414.2,532.5 415.4,
532.2 416.6,532.0 417.8,531.7 419.0,531.4 420.2,531.1 421.4,
530.8 422.6,530.5 423.8,530.2 425.0,529.9 426.2,529.5 427.3,
529.2 428.5,528.8 429.7,528.4 430.8,528.0 432.0,527.6 433.1,
527.2 434.2,526.8 435.4,526.4 436.5,525.9 437.6,525.5 438.7,
525.0 439.8,524.5 441.0,524.0 442.0,523.5 443.1,523.0 444.2,
522.5 445.3,522.0 446.4,521.4 447.4,520.9 448.5,520.3 449.5,
519.7 450.6,519.2 451.6,518.6 452.6,518.0 453.6,517.4 454.6,
516.8 455.6,516.1 456.6,515.5 457.6,514.8 458.6,514.2 459.6,
513.5 460.5,512.9 461.5,512.2 462.4,511.5 463.4,510.8 464.3,
510.1 465.2,509.4 466.1,508.7 467.0,507.9 467.9,507.2 468.8,
506.4 469.7,505.7 470.5,504.9 471.4,504.2 472.2,503.4 473.1,
502.6 473.9,501.8 474.7,501.0 475.5,500.2 476.3,499.4 477.1,
498.6 477.9,497.7 478.7,496.9 479.4,496.1 480.2,495.2 480.9,
494.4 481.7,493.5 482.4,492.7 483.1,491.8 483.8,490.9 484.5,
490.0 485.2,489.2 485.8,488.3 486.5,487.4 487.1,486.5 487.8,
485.6 488.4,484.6 489.0,483.7 489.7,482.8 490.3,481.9 490.8,
481.0 491.4,480.0 492.0,479.1 492.5,478.1 493.1,477.2 493.6,
476.2 494.2,475.3 494.7,474.3 495.2,473.4 495.7,472.4 496.2,
471.4 496.6,470.5 497.1,469.5 497.5,468.5 498.0,467.5 498.4,
466.5 498.8,465.6 499.2,464.6 499.6,463.6 500.0,462.6 500.4,
461.6 500.8,460.6 501.1,459.6 501.5,458.6 501.8,457.6 502.1,
456.6 502.4,455.6 502.7,454.6 503.0,453.6 503.3,452.5 503.6,
451.5 503.8,450.5 504.1,449.5 504.3,448.5 504.5,447.5 504.7,
446.5 504.9,445.5 505.1,444.4 505.3,443.4 505.5,442.4 505.6,
441.4 505.8,440.4 505.9,439.4 506.0,438.4 506.2,437.4 506.3,
436.3 506.4,435.3 506.4,434.3 506.5,433.3 506.6,432.3 506.6,
431.3 506.7,430.3 506.7,429.3 506.7,428.3 506.7,427.3 506.7,
426.3 506.7,425.3 506.7,424.3 506.7,423.3 506.6,422.3 506.6,
421.3 506.5,420.3 506.5,419.4 506.4,418.4 506.3,417.4 506.2,
416.4 506.1,415.5 506.0,414.5 505.8,413.5 505.7,412.6 505.5,
411.6 505.4,410.6 505.2,409.7 505.0,408.7 504.9,407.8 504.7,
406.9 504.4,405.9 504.2,405.0 504.0,404.1 503.8,403.1 503.5,
402.2 503.3,401.3 503.0,400.4 502.7,399.5 502.5,398.6 502.2,
397.7 501.9,396.8 501.6,395.9 501.3,395.0 500.9,394.1 500.6,
393.3 500.3,392.4 499.9,391.5 499.6,390.7 499.2,389.8 498.8,
389.0 498.4,388.2 498.1,387.3 497.7,386.5 497.2,385.7 496.8,
384.9 496.4,384.0 496.0,383.2 495.6,382.4 495.1,381.6 494.7,
380.9 494.2,380.1 493.7,379.3 493.3,378.5 492.8,377.8 492.3,
377.0 491.8,376.3 491.3,375.5 490.8,374.8 490.3,374.1 489.8,
373.4 489.2,372.6 488.7,371.9 488.2,371.2 487.6,370.5 487.1,
369.9 486.5,369.2 485.9,368.5 485.4,367.8 484.8,367.2 484.2,
366.5 483.6,365.9 483.0,365.3 482.4,364.6 481.8,364.0 481.2,
363.4 480.6,362.8 480.0,362.2 479.4,361.6 478.7,361.0 478.1,
360.5 477.5,359.9 476.8,359.4 476.2,358.8 475.5,358.3 474.9,
357.7 474.2,357.2 473.6,356.7 472.9,356.2 472.2,355.7 471.5,
355.2 470.9,354.7 470.2,354.2 469.5,353.8 468.8,353.3 468.1,
352.9 467.4,352.4 466.7,352.0 466.0,351.5 465.3,351.1 464.6,
350.7 463.9,350.3 463.2,349.9 462.4,349.5 461.7,349.2 461.0,
348.8 460.3,348.4 459.5,348.1 458.8,347.7 458.1,347.4 457.3,
347.1 456.6,346.8 455.9,346.5 455.1,346.2 454.4,345.9 453.7,
345.6 452.9,345.3 452.2,345.0 451.4,344.8 450.7,344.5 449.9,
344.3 449.2,344.1 448.4,343.8 447.7,343.6 446.9,343.4 446.2,
343.2 445.4,343.0 444.7,342.8 443.9,342.7 443.2,342.5 442.4,
342.3 441.7,342.2 440.9,342.0 440.2,341.9 439.4,341.8 438.6,
341.7 437.9,341.6 437.1,341.5 436.4,341.4 435.6,341.3 434.9,
341.2 434.1,341.1 433.4,341.1 432.7,341.0 431.9,341.0 431.2,
341.0 430.4,340.9 429.7,340.9 428.9,340.9 428.2,340.9 427.5,
340.9 426.7,340.9 426.0,340.9 425.3,341.0 424.5,341.0 423.8,
341.0 423.1,341.1 422.4,341.1 421.7,341.2 420.9,341.3 420.2,
341.4 419.5,341.4 418.8,341.5 418.1,341.6 417.4,341.7 416.7,
341.9 416.0,342.0 415.3,342.1 414.6,342.3 413.9,342.4 413.2,
342.5 412.5,342.7 411.9,342.9 411.2,343.0 410.5,343.2 409.8,
343.4 409.2,343.6 408.5,343.8 407.9,344.0 407.2,344.2 406.6,
344.4 405.9,344.7 405.3,344.9 404.6,345.1 404.0,345.4 403.4,
345.6 402.7,345.9 402.1,346.1 401.5,346.4 400.9,346.7 400.3,
346.9 399.7,347.2 399.1,347.5 398.5,347.8 397.9,348.1 397.3,
348.4 396.7,348.7 396.1,349.0 395.6,349.4 395.0,349.7 394.4,
350.0 393.9,350.4 393.3,350.7 392.8,351.1 392.3,351.4 391.7,
351.8 391.2,352.1 390.7,352.5 390.1,352.9 389.6,353.2 389.1,
353.6 388.6,354.0 388.1,354.4 387.6,354.8 387.1,355.2 386.7,
355.6 386.2,356.0 385.7,356.4 385.3,356.8 384.8,357.2 384.4,
357.6 383.9,358.1 383.5,358.5 383.0,358.9 382.6,359.4 382.2,
359.8 381.8,360.2 381.4,360.7 380.9,361.1 380.5,361.6 380.2,
362.0 379.8,362.5 379.4,362.9 379.0,363.4 378.6,363.9 378.3,
364.3 377.9,364.8 377.6,365.3 377.2,365.8 376.9,366.2 376.6,
366.7 376.2,367.2 375.9,367.7 375.6,368.2 375.3,368.6 375.0,
369.1 374.7,369.6 374.4,370.1 374.1,370.6 373.9,371.1 373.6,
371.6 373.3,372.1 373.1,372.6 372.8,373.1 372.6,373.6 372.3,
374.1 372.1,374.6 371.9,375.1 371.7,375.6 371.4,376.1 371.2,
376.6 371.0,377.1 370.8,377.6 370.7,378.1 370.5,378.7 370.3,
379.2 370.1,379.7 370.0,380.2 369.8,380.7 369.7,381.2 369.5,
381.7 369.4,382.2 369.3,382.7 369.1,383.2 369.0,383.7 368.9,
384.2 368.8,384.8 368.7,385.3 368.6,385.8 368.5,386.3 368.4,
386.8 368.3,387.3 368.3,387.8 368.2,388.3 368.1,388.8 368.1,
389.3 368.0,389.8 368.0,390.3 368.0,390.8 367.9,391.3 367.9,
391.8 367.9,392.3 367.9,392.8 367.9,393.2 367.8,393.7 367.9,
394.2 367.9,394.7 367.9,395.2 367.9,395.7 367.9,396.1 367.9,
396.6 368.0,397.1 368.0,397.6 368.1,398.0 368.1,398.5 368.2,
399.0 368.2,399.4 368.3,399.9 368.4,400.3 368.4,400.8 368.5,
401.2 368.6,401.7 368.7,402.1 368.8,402.6 368.9,403.0 369.0,
403.5 369.1,403.9 369.2,404.3 369.4,404.8 369.5,405.2 369.6,
405.6 369.7,406.0 369.9,406.5 370.0,406.9 370.2,407.3 370.3,
407.7 370.5,408.1 370.6,408.5 370.8,408.9 371.0,409.3 371.1,
409.7 371.3,410.1 371.5,410.4 371.7,410.8 371.8,411.2 372.0,
411.6 372.2,411.9 372.4,412.3 372.6,412.7 372.8,413.0 373.0,
413.4 373.3,413.7 373.5,414.1 373.7,414.4 373.9,414.7 374.1,
415.1 374.4,415.4 374.6,415.7 374.8,416.1 375.1,416.4 375.3,
416.7 375.5,417.0 375.8,417.3 376.0,417.6 376.3,417.9 376.5,
418.2 376.8,418.5 377.1,418.8 377.3,419.0 377.6,419.3 377.8,
419.6 378.1,419.8 378.4,420.1 378.6,420.4 378.9,420.6 379.2,
420.9 379.5,421.1 379.8,421.3 380.0,421.6 380.3,421.8 380.6,
422.0 380.9,422.2 381.2,422.5 381.5,422.7 381.8,422.9 382.0,
423.1 382.3,423.3 382.6,423.5 382.9,423.7 383.2,423.8 383.5,
424.0 383.8,424.2 384.1,424.4 384.4,424.5 384.7,424.7 385.0,
424.8 385.3,425.0 385.6,425.1 385.9,425.3 386.2,425.4 386.5,
425.6 386.8,425.7 387.1,425.8 387.5,425.9 387.8,426.0 388.1,
426.2 388.4,426.3 388.7,426.4 389.0,426.5 389.3,426.6 389.6,
426.6 389.9,426.7 390.2,426.8 390.5,426.9 390.8,427.0 391.1,
427.0 391.4,427.1 391.7,427.1 392.0,427.2 392.3,427.2 392.6,
427.3 392.9,427.3 393.2,427.4 393.5,427.4 393.8,427.4 394.1,
427.4 394.4,427.5 394.7,427.5 395.0,427.5 395.3,427.5 395.6,
427.5 395.9,427.5 396.2,427.5 396.4,427.5 396.7,427.5 397.0,
427.5 397.3,427.4 397.6,427.4 397.8,427.4 398.1,427.4 398.4,
427.3 398.7,427.3 398.9,427.2 399.2,427.2 399.5,427.1 399.7,
427.1 400.0,427.0 400.3,427.0 400.5,426.9 400.8,426.8 401.0,
426.8 401.3,426.7 401.5,426.6 401.8,426.5 402.0,426.5 402.3,
426.4 402.5,426.3 402.7,426.2 403.0,426.1 403.2,426.0 403.4,
425.9 403.7,425.8 403.9,425.7 404.1,425.6 404.3,425.4 404.5,
425.3 404.8,425.2 405.0,425.1 405.2,425.0 405.4,424.8 405.6,
424.7 405.8,424.6 406.0,424.4 406.2,424.3 406.4,424.2 406.5,
424.0 406.7,423.9 406.9,423.7 407.1,423.6 407.3,423.4 407.4,
423.3 407.6,423.1 407.8,423.0 407.9,422.8 408.1,422.7 408.2,
422.5 408.4,422.3 408.5,422.2 408.7,422.0 408.8,421.8 408.9,
421.7 409.1,421.5 409.2,421.3 409.3,421.1 409.5,421.0 409.6,
420.8 409.7,420.6 409.8,420.4 409.9,420.3 410.0,420.1 410.1,
419.9 410.2,419.7 410.3,419.5 410.4,419.3 410.5,419.2 410.6,
419.0 410.6,418.8 410.7,418.6 410.8,418.4 410.9,418.2 410.9,
418.0 411.0,417.9 411.0,417.7 411.1,417.5 411.1,417.3 411.2,
417.1 411.2,416.9 411.3,416.7 411.3,416.5 411.3,416.3 411.4,
416.1 411.4,416.0 411.4,415.8 411.4,415.6 411.4,415.4 411.4,
415.2 411.4,415.0 411.4,414.8 411.4,414.6 411.4,414.5 411.4,
414.3 411.4,414.1 411.4,413.9 411.4,413.7 411.4,413.5 411.3,
413.4 411.3,413.2 411.3,413.0 411.2,412.8 411.2,412.6 411.2,
412.5 411.1,412.3 411.1,412.1 411.0,411.9 410.9,411.8 410.9,
411.6 410.8,411.4 410.7,411.3 410.7,411.1 410.6,410.9 410.5,
410.8 410.4,410.6 410.4,410.5 410.3,410.3 410.2,410.2 410.1,
410.0 410.0,409.8 409.9,409.7 409.8,409.5 409.7,409.4 409.6,
409.2 409.6,409.1 409.5,408.9 409.4,408.7 409.3,408.6 409.3,
408.4 409.2,408.2 409.1,408.1 409.1,407.9 409.0,407.7 408.9,
407.5 408.9,407.4 408.8,407.2 408.8,407.0 408.8,406.8 408.7,
406.6 408.7,406.5 408.7,406.3 408.6,406.1 408.6,405.9 408.6,
405.7 408.6,405.5 408.6,405.4 408.6,405.2 408.6,405.0 408.6,
404.8 408.6,404.6 408.6,404.4 408.6,404.2 408.6,404.0 408.6,
403.9 408.6,403.7 408.6,403.5 408.7,403.3 408.7,403.1 408.7,
402.9 408.8,402.7 408.8,402.5 408.9,402.3 408.9,402.1 409.0,
402.0 409.0,401.8 409.1,401.6 409.1,401.4 409.2,401.2 409.3,
401.0 409.4,400.8 409.4,400.7 409.5,400.5 409.6,400.3 409.7,
400.1 409.8,399.9 409.9,399.7 410.0,399.6 410.1,399.4 410.2,
399.2 410.3,399.0 410.4,398.9 410.5,398.7 410.7,398.5 410.8,
398.3 410.9,398.2 411.1,398.0 411.2,397.8 411.3,397.7 411.5,
397.5 411.6,397.3 411.8,397.2 411.9,397.0 412.1,396.9 412.2,
396.7 412.4,396.6 412.6,396.4 412.7,396.3 412.9,396.1 413.1,
396.0 413.3,395.8 413.5,395.7 413.6,395.6 413.8,395.4 414.0,
395.3 414.2,395.2 414.4,395.0 414.6,394.9 414.8,394.8 415.0,
394.7 415.2,394.6 415.5,394.4 415.7,394.3 415.9,394.2 416.1,
394.1 416.3,394.0 416.6,393.9 416.8,393.8 417.0,393.7 417.3,
393.6 417.5,393.5 417.7,393.5 418.0,393.4 418.2,393.3 418.5,
393.2 418.7,393.2 419.0,393.1 419.2,393.0 419.5,393.0 419.7,
392.9 420.0,392.9 420.3,392.8 420.5,392.8 420.8,392.7 421.1,
392.7 421.3,392.6 421.6,392.6 421.9,392.6 422.2,392.6 422.4,
392.5 422.7,392.5 423.0,392.5 423.3,392.5 423.6,392.5 423.8,
392.5 424.1,392.5 424.4,392.5 424.7,392.5 425.0,392.5 425.3,
392.6 425.6,392.6 425.9,392.6 426.2,392.6 426.5,392.7 426.8,
392.7 427.1,392.8 427.4,392.8 427.7,392.9 428.0,392.9 428.3,
393.0 428.6,393.0 428.9,393.1 429.2,393.2 429.5,393.3 429.8,
393.4 430.1,393.4 430.4,393.5 430.7,393.6 431.0,393.7 431.3,
393.8 431.6,394.0 431.9,394.1 432.2,394.2 432.5,394.3 432.9,
394.4 433.2,394.6 433.5,394.7 433.8,394.9 434.1,395.0 434.4,
395.2 434.7,395.3 435.0,395.5 435.3,395.6 435.6,395.8 435.9,
396.0 436.2,396.2 436.5,396.3 436.8,396.5 437.1,396.7 437.4,
396.9 437.7,397.1 438.0,397.3 438.2,397.5 438.5,397.8 438.8,
398.0 439.1,398.2 439.4,398.4 439.7,398.7 440.0,398.9 440.2,
399.1 440.5,399.4 440.8,399.6 441.1,399.9 441.4,400.2 441.6,
400.4 441.9,400.7 442.2,401.0 442.4,401.2 442.7,401.5 442.9,
401.8 443.2,402.1 443.5,402.4 443.7,402.7 444.0,403.0 444.2,
403.3 444.5,403.6 444.7,403.9 444.9,404.3 445.2,404.6 445.4,
404.9 445.6,405.3 445.9,405.6 446.1,405.9 446.3,406.3 446.5,
406.6 446.7,407.0 447.0,407.3 447.2,407.7 447.4,408.1 447.6,
408.4 447.8,408.8 448.0,409.2 448.2,409.6 448.3,409.9 448.5,
410.3 448.7,410.7 448.9,411.1 449.0,411.5 449.2,411.9 449.4,
412.3 449.5,412.7 449.7,413.1 449.8,413.5 450.0,414.0 450.1,
414.4 450.3,414.8 450.4,415.2 450.5,415.7 450.6,416.1 450.8,
416.5 450.9,417.0 451.0,417.4 451.1,417.9 451.2,418.3 451.3,
418.8 451.4,419.2 451.5,419.7 451.6,420.1 451.6,420.6 451.7,
421.0 451.8,421.5 451.8,422.0 451.9,422.4 451.9,422.9 452.0,
423.4 452.0,423.9 452.1,424.3 452.1,424.8 452.1,425.3 452.1,
425.8 452.1,426.3 452.1,426.8 452.2,427.2 452.1,427.7 452.1,
428.2 452.1,428.7 452.1,429.2 452.1,429.7 452.0,430.2 452.0,
430.7 452.0,431.2 451.9,431.7 451.9,432.2 451.8,432.7 451.7,
433.2 451.7,433.7 451.6,434.2 451.5,434.7 451.4,435.2 451.3,
435.8 451.2,436.3 451.1,436.8 451.0,437.3 450.9,437.8 450.7,
438.3 450.6,438.8 450.5,439.3 450.3,439.8 450.2,440.3 450.0,
440.8 449.9,441.3 449.7,441.9 449.5,442.4 449.3,442.9 449.2,
443.4 449.0,443.9 448.8,444.4 448.6,444.9 448.3,445.4 448.1,
445.9 447.9,446.4 447.7,446.9 447.4,447.4 447.2,447.9 446.9,
448.4 446.7,448.9 446.4,449.4 446.1,449.9 445.9,450.4 445.6,
450.9 445.3,451.4 445.0,451.8 444.7,452.3 444.4,452.8 444.1,
453.3 443.8,453.8 443.4,454.2 443.1,454.7 442.8,455.2 442.4,
455.7 442.1,456.1 441.7,456.6 441.4,457.1 441.0,457.5 440.6,
458.0 440.2,458.4 439.8,458.9 439.5,459.3 439.1,459.8 438.6,
460.2 438.2,460.6 437.8,461.1 437.4,461.5 437.0,461.9 436.5,
462.4 436.1,462.8 435.6,463.2 435.2,463.6 434.7,464.0 434.3,
464.4 433.8,464.8 433.3,465.2 432.9,465.6 432.4,466.0 431.9,
466.4 431.4,466.8 430.9,467.1 430.4,467.5 429.9,467.9 429.3,
468.2 428.8,468.6 428.3,468.9 427.7,469.3 427.2,469.6 426.7,
470.0 426.1,470.3 425.6,470.6 425.0,471.0 424.4,471.3 423.9,
471.6 423.3,471.9 422.7,472.2 422.1,472.5 421.5,472.8 420.9,
473.1 420.3,473.3 419.7,473.6 419.1,473.9 418.5,474.1 417.9,
474.4 417.3,474.6 416.6,474.9 416.0,475.1 415.4,475.3 414.7,
475.6 414.1,475.8 413.4,476.0 412.8,476.2 412.1,476.4 411.5,
476.6 410.8,476.8 410.2,477.0 409.5,477.1 408.8,477.3 408.1,
477.5 407.5,477.6 406.8,477.7 406.1,477.9 405.4,478.0 404.7,
478.1 404.0,478.3 403.3,478.4 402.6,478.5 401.9,478.6 401.2,
478.6 400.5,478.7 399.8,478.8 399.1,478.9 398.3,478.9 397.6,
479.0 396.9,479.0 396.2,479.0 395.5,479.1 394.7,479.1 394.0,
479.1 393.3,479.1 392.5,479.1 391.8,479.1 391.1,479.1 390.3,
479.0 389.6,479.0 388.8,479.0 388.1,478.9 387.3,478.9 386.6,
478.8 385.9,478.7 385.1,478.6 384.4,478.5 383.6,478.4 382.9,
478.3 382.1,478.2 381.4,478.1 380.6,478.0 379.8,477.8 379.1,
477.7 378.3,477.5 377.6,477.3 376.8,477.2 376.1,477.0 375.3,
476.8 374.6,476.6 373.8,476.4 373.1,476.2 372.3,475.9 371.6,
475.7 370.8,475.5 370.1,475.2 369.3,475.0 368.6,474.7 367.8,
474.4 367.1,474.1 366.3,473.8 365.6,473.5 364.9,473.2 364.1,
472.9 363.4,472.6 362.7,472.3 361.9,471.9 361.2,471.6 360.5,
471.2 359.7,470.8 359.0,470.5 358.3,470.1 357.6,469.7 356.8,
469.3 356.1,468.9 355.4,468.5 354.7,468.0 354.0,467.6 353.3,
467.1 352.6,466.7 351.9,466.2 351.2,465.8 350.5,465.3 349.8,
464.8 349.1,464.3 348.5,463.8 347.8,463.3 347.1,462.8 346.4,
462.3 345.8,461.7 345.1,461.2 344.5,460.6 343.8,460.1 343.2,
459.5 342.5,459.0 341.9,458.4 341.3,457.8 340.6,457.2 340.0,
456.6 339.4,456.0 338.8,455.4 338.2,454.7 337.6,454.1 337.0,
453.5 336.4,452.8 335.8,452.2 335.2,451.5 334.6,450.8 334.1,
450.1 333.5,449.5 332.9,448.8 332.4,448.1 331.8,447.4 331.3,
446.6 330.8,445.9 330.2,445.2 329.7,444.5 329.2,443.7 328.7,
443.0 328.2,442.2 327.7,441.5 327.2,440.7 326.7,439.9 326.3,
439.1 325.8,438.4 325.3,437.6 324.9,436.8 324.4,436.0 324.0,
435.1 323.6,434.3 323.2,433.5 322.8,432.7 322.3,431.8 321.9,
431.0 321.6,430.2 321.2,429.3 320.8,428.5 320.4,427.6 320.1,
426.7 319.7,425.9 319.4,425.0 319.1,424.1 318.7,423.2 318.4,
422.3 318.1,421.4 317.8,420.5 317.5,419.6 317.3,418.7 317.0,
417.8 316.7,416.9 316.5,415.9 316.2,415.0 316.0,414.1 315.8,
413.1 315.6,412.2 315.3,411.3 315.1,410.3 315.0,409.4 314.8,
408.4 314.6,407.4 314.5,406.5 314.3,405.5 314.2,404.5 314.0,
403.6 313.9,402.6 313.8,401.6 313.7,400.6 313.6,399.7 313.5,
398.7 313.5,397.7 313.4,396.7 313.4,395.7 313.3,394.7 313.3,
393.7 313.3,392.7 313.3,391.7 313.3,390.7 313.3,389.7 313.3,
388.7 313.3,387.7 313.4,386.7 313.4,385.7 313.5,384.7 313.6,
383.7 313.6,382.6 313.7,381.6 313.8,380.6 314.0,379.6 314.1,
378.6 314.2,377.6 314.4,376.6 314.5,375.6 314.7,374.5 314.9,
373.5 315.1,372.5 315.3,371.5 315.5,370.5 315.7,369.5 315.9,
368.5 316.2,367.5 316.4,366.4 316.7,365.4 317.0,364.4 317.3,
363.4 317.6,362.4 317.9,361.4 318.2,360.4 318.5,359.4 318.9,
358.4 319.2,357.4 319.6,356.4 320.0,355.4 320.4,354.4 320.8,
353.5 321.2,352.5 321.6,351.5 322.0,350.5 322.5,349.5 322.9,
348.6 323.4,347.6 323.8,346.6 324.3,345.7 324.8,344.7 325.3,
343.8 325.8,342.8 326.4,341.9 326.9,340.9 327.5,340.0 328.0,
339.0 328.6,338.1 329.2,337.2 329.7,336.3 330.3,335.4 331.0,
334.4 331.6,333.5 332.2,332.6 332.9,331.7 333.5,330.8 334.2,
330.0 334.8,329.1 335.5,328.2 336.2,327.3 336.9,326.5 337.6,
325.6 338.3,324.8 339.1,323.9 339.8,323.1 340.6,322.3 341.3,
321.4 342.1,320.6 342.9,319.8 343.7,319.0 344.5,318.2 345.3,
317.4 346.1,316.6 346.9,315.8 347.8,315.1 348.6,314.3 349.5,
313.6 350.3,312.8 351.2,312.1 352.1,311.3 353.0,310.6 353.9,
309.9 354.8,309.2 355.7,308.5 356.6,307.8 357.6,307.1 358.5,
306.5 359.5,305.8 360.4,305.2 361.4,304.5 362.4,303.9 363.4,
303.2 364.4,302.6 365.4,302.0 366.4,301.4 367.4,300.8 368.4,
300.3 369.4,299.7 370.5,299.1 371.5,298.6 372.6,298.0 373.6,
297.5 374.7,297.0 375.8,296.5 376.9,296.0 378.0,295.5 379.0,
295.0 380.2,294.5 381.3,294.1 382.4,293.6 383.5,293.2 384.6,
292.8 385.8,292.4 386.9,292.0 388.0,291.6 389.2,291.2 390.3,
290.8 391.5,290.5 392.7,290.1 393.8,289.8 395.0,289.5 396.2,
289.2 397.4,288.9 398.6,288.6 399.8,288.3 401.0,288.0 402.2,
287.8 403.4,287.5 404.6,287.3 405.8,287.1 407.1,286.9 408.3,
286.7 409.5,286.5 410.7,286.4 412.0,286.2 413.2,286.1 414.5,
285.9 415.7,285.8 417.0,285.7 418.2,285.6 419.5,285.5 420.7,
285.5 422.0,285.4 423.3,285.4 424.5,285.4 425.8,285.3 427.1,
285.3 428.3,285.4 429.6,285.4 430.9,285.4 432.2,285.5 433.4,
285.5 434.7,285.6 436.0,285.7 437.3,285.8 438.6,285.9 439.8,
286.0 441.1,286.2 442.4,286.3 443.7,286.5 445.0,286.7 446.3,
286.9 447.5,287.1 448.8,287.3 450.1,287.6 451.4,287.8 452.7,
288.1 454.0,288.4 455.2,288.6 456.5,289.0 457.8,289.3 459.1,
289.6 460.3,289.9 461.6,290.3 462.9,290.7 464.2,291.1 465.4,
291.5 466.7,291.9 467.9,292.3 469.2,292.7 470.5,293.2 471.7,
293.6 473.0,294.1 474.2,294.6 475.5,295.1 476.7,295.6 477.9,
296.2 479.2,296.7 480.4,297.3 481.6,297.8 482.8,298.4 484.1,
299.0 485.3,299.6 486.5,300.3 487.7,300.9 488.9,301.5 490.1,
302.2 491.3,302.9 492.5,303.6 493.6,304.3 494.8,305.0 496.0,
305.7 497.1,306.4 498.3,307.2 499.4,308.0 500.6,308.7 501.7,
309.5 502.8,310.3 504.0,311.2 505.1,312.0 506.2,312.8 507.3,
313.7 508.4,314.5 509.5,315.4 510.6,316.3 511.6,317.2 512.7,
318.1 513.8,319.0 514.8,320.0 515.9,320.9 516.9,321.9 517.9,
322.9 518.9,323.8 519.9,324.8 520.9,325.8 521.9,326.8 522.9,
327.9 523.9,328.9 524.8,330.0 525.8,331.0 526.7,332.1 527.7,
333.2 528.6,334.3 529.5,335.4 530.4,336.5 531.3,337.6 532.2,
338.8 533.1,339.9 533.9,341.1 534.8,342.2 535.6,343.4 536.5,
344.6 537.3,345.8 538.1,347.0 538.9,348.2 539.7,349.4 540.4,
350.7 541.2,351.9 542.0,353.1 542.7,354.4 543.4,355.7 544.1,
357.0 544.8,358.2 545.5,359.5 546.2,360.8 546.9,362.2 547.5,
363.5 548.2,364.8 548.8,366.1 549.4,367.5 550.0,368.8 550.6,
370.2 551.2,371.6 551.8,372.9 552.3,374.3 552.9,375.7 553.4,
377.1 553.9,378.5 554.4,379.9 554.9,381.3 555.3,382.7 555.8,
384.2 556.2,385.6 556.7,387.1 557.1,388.5 557.5,389.9 557.9,
391.4 558.2,392.9 558.6,394.3 558.9,395.8 559.3,397.3 559.6,
398.8 559.9,400.3 560.2,401.8 560.4,403.2 560.7,404.7 560.9,
406.3 561.2,407.8 561.4,409.3 561.6,410.8 561.7,412.3 561.9,
413.8 562.1,415.4 562.2,416.9 562.3,418.4 562.4,420.0 562.5,
421.5 562.6,423.0 562.6,424.6 562.7,426.1 562.7,427.7 562.7,
429.2 562.7,430.8 562.7,432.3 562.6,433.9 562.6,435.4 562.5,
437.0 562.4,438.5 562.3,440.1 562.2,441.7 562.1,443.2 561.9,
444.8 561.8,446.3 561.6,447.9 561.4,449.4 561.2,451.0 561.0,
452.6 560.7,454.1 560.4,455.7 560.2,457.2 559.9,458.8 559.6,
460.3 559.2,461.9 558.9,463.4 558.5,465.0 558.2,466.5 557.8,
468.1 557.4,469.6 557.0,471.1 556.5,472.7 556.1,474.2 555.6,
475.7 555.1,477.2 554.6,478.8 554.1,480.3 553.6,481.8 553.0,
483.3 552.4,484.8 551.9,486.3 551.3,487.8 550.7,489.3 550.0,
490.8 549.4,492.3 548.7,493.7 548.1,495.2 547.4,496.7 546.7,
498.1 545.9,499.6 545.2,501.0 544.4,502.5 543.7,503.9 542.9,
505.3 542.1,506.8 541.3,508.2 540.4,509.6 539.6,511.0 538.7,
512.4 537.9,513.8 537.0,515.2 536.1,516.5 535.1,517.9 534.2,
519.2 533.3,520.6 532.3,521.9 531.3,523.3 530.3,524.6 529.3,
525.9 528.3,527.2 527.2,528.5 526.2,529.8 525.1,531.1 524.0,
532.3 523.0,533.6 521.8,534.8 520.7,536.1 519.6,537.3 518.4,
538.5 517.3,539.7 516.1,540.9 514.9,542.1 513.7,543.3 512.5,
544.4 511.3,545.6 510.0,546.7 508.8,547.8 507.5,549.0 506.2,
550.1 504.9,551.2 503.6,552.2 502.3,553.3 501.0,554.4 499.6,
555.4 498.3,556.4 496.9,557.5 495.5,558.5 494.1,559.4 492.7,
560.4 491.3,561.4 489.9,562.3 488.5,563.3 487.0,564.2 485.6,
565.1 484.1,566.0 482.6,566.9 481.1,567.8 479.6,568.6 478.1,
569.5 476.6,570.3 475.1,571.1 473.5,571.9 472.0,572.7 470.4,
573.4 468.8,574.2 467.3,574.9 465.7,575.6 464.1,576.3 462.5,
577.0 460.9,577.7 459.2,578.4 457.6,579.0 456.0,579.6 454.3,
580.2 452.7,580.8 451.0,581.4 449.3,582.0 447.7,582.5 446.0,
583.0 444.3,583.5 442.6,584.0 440.9,584.5 439.2,585.0 437.4,
585.4 435.7,585.9 434.0,586.3 432.3,586.7 430.5,587.0 428.8,
587.4 427.0,587.7 425.2,588.1 423.5,588.4 421.7,588.6 419.9,
588.9 418.2,589.2 416.4,589.4 414.6,589.6 412.8,589.8 411.0,
590.0 409.2,590.2 407.4,590.3 405.6,590.4 403.8,590.5 402.0,
590.6 400.2,590.7 398.3,590.8 396.5,590.8 394.7,590.8 392.9,
590.8 391.0,590.8 389.2,590.8 387.4,590.7 385.6,590.6 383.7,
590.5 381.9,590.4 380.1,590.3 378.2,590.1 376.4,590.0 374.6,
589.8 372.7,589.6 370.9,589.3 369.1,589.1 367.2,588.8 365.4,
588.6 363.6,588.3 361.7,587.9 359.9,587.6 358.1,587.2 356.3,
586.9 354.4,586.5 352.6,586.1 350.8,585.6 349.0,585.2 347.2,
584.7 345.3,584.2 343.5,583.7 341.7,583.2 339.9,582.7 338.1,
582.1 336.3,581.5 334.5,580.9 332.8,580.3 331.0,579.7 329.2,
579.0 327.4,578.3 325.7,577.6 323.9,576.9 322.2,576.2 320.4,
575.5 318.7,574.7 316.9,573.9 315.2,573.1 313.5,572.3 311.7,
571.5 310.0,570.6 308.3,569.7 306.6,568.8 304.9,567.9 303.2,
567.0 301.6,566.1 299.9,565.1 298.2,564.1 296.6,563.1 294.9,
562.1 293.3,561.1 291.7,560.0 290.1,558.9 288.5,557.9 286.9,
556.8 285.3,555.6 283.7,554.5 282.1,553.4 280.6,552.2 279.0,
551.0 277.5,549.8 275.9,548.6 274.4,547.3 272.9,546.1 271.4,
544.8 269.9,543.5 268.5,542.2 267.0,540.9 265.6,539.6 264.1,
538.2 262.7,536.9 261.3,535.5 259.9,534.1 258.5,532.7 257.1,
531.3 255.8,529.8 254.4,528.4 253.1,526.9 251.8,525.4 250.5,
523.9 249.2,522.4 247.9,520.9 246.6,519.4 245.4,517.8 244.1,
516.2 242.9,514.7 241.7,513.1 240.5,511.5 239.3,509.8 238.2,
508.2 237.0,506.6 235.9,504.9 234.8,503.2 233.7,501.5 232.6,
499.8 231.5,498.1 230.5,496.4 229.5,494.7 228.4,492.9 227.4,
491.2 226.4,489.4 225.5,487.6 224.5,485.8 223.6,484.0 222.7,
482.2 221.8,480.4 220.9,478.6 220.0,476.7 219.2,474.9 218.4,
473.0 217.5,471.1 216.8,469.2 216.0,467.4 215.2,465.5 214.5,
463.5 213.8,461.6 213.1,459.7 212.4,457.8 211.7,455.8 211.1,
453.9 210.5,451.9 209.9,449.9 209.3,448.0 208.7,446.0 208.2,
444.0 207.6,442.0 207.1,440.0 206.6,438.0 206.2,436.0 205.7,
433.9 205.3,431.9 204.9,429.9 204.5,427.8 204.1,425.8 203.8,
423.7 203.5,421.7 203.1,419.6 202.9,417.5 202.6,415.5 202.4,
413.4 202.1,411.3 201.9,409.2 201.7,407.2 201.6,405.1 201.4,
403.0 201.3,400.9 201.2,398.8 201.1,396.7 201.1,394.6 201.0,
392.5 201.0,390.4 201.0,388.3 201.1,386.2 201.1,384.1 201.2,
381.9 201.3,379.8 201.4,377.7 201.5,375.6 201.7,373.5 201.9,
371.4 202.1,369.3 202.3,367.2 202.5,365.0 202.8,362.9 203.1,
360.8 203.4,358.7 203.7,356.6 204.0,354.5 204.4,352.4 204.8,
350.3 205.2,348.2 205.7,346.1 206.1,344.0 206.6,341.9 207.1,
339.9 207.6,337.8 208.2,335.7 208.7,333.6 209.3,331.6 209.9,
329.5 210.5,327.4 211.2,325.4 211.9,323.3 212.5,321.3 213.3,
319.2 214.0,317.2 214.7,315.2 215.5,313.2 216.3,311.1 217.1,
309.1 218.0,307.1 218.8,305.1 219.7,303.2 220.6,301.2 221.5,
299.2 222.5,297.3 223.4,295.3 224.4,293.4 225.4,291.4 226.5,
289.5 227.5,287.6 228.6,285.7 229.7,283.8 230.8,281.9 231.9,
280.0 233.0,278.1 234.2,276.2 235.4,274.4 236.6,272.6 237.8,
270.7 239.0,268.9 240.3,267.1 241.6,265.3 242.9,263.5 244.2,
261.8 245.6,260.0 246.9,258.3 248.3,256.5 249.7,254.8 251.1,
253.1 252.5,251.4 254.0,249.7 255.5,248.0 256.9,246.4 258.4,
244.7 260.0,243.1 261.5,241.5 263.1,239.9 264.6,238.3 266.2,
236.8 267.8,235.2 269.5,233.7 271.1,232.1 272.8,230.6 274.4,
229.1 276.1,227.7 277.9,226.2 279.6,224.8 281.3,223.3 283.1,
221.9 284.9,220.5 286.6,219.2 288.4,217.8 290.3,216.5 292.1,
215.1 293.9,213.8 295.8,212.5 297.7,211.3 299.6,210.0 301.5,
208.8 303.4,207.6 305.3,206.4 307.3,205.2 309.3,204.0 311.2,
202.9 313.2,201.8 315.2,200.7 317.2,199.6 319.3,198.5 321.3,
197.5 323.3,196.5 325.4,195.5 327.5,194.5 329.6,193.5 331.7,
192.6 333.8,191.7 335.9,190.7 338.0,189.9 340.2,189.0 342.3,
188.2 344.5,187.4 346.7,186.6 348.8,185.8 351.0,185.0 353.2,
184.3 355.4,183.6 357.7,182.9 359.9,182.2 362.1,181.6 364.4,
181.0 366.6,180.4 368.9,179.8 371.2,179.2 373.4,178.7 375.7,
178.2 378.0,177.7 380.3,177.2 382.6,176.8 384.9,176.4 387.2,
176.0 389.6,175.6 391.9,175.3 394.2,174.9 396.5,174.6 398.9,
174.4 401.2,174.1 403.6,173.9 405.9,173.7 408.3,173.5 410.7,
173.3 413.0,173.2 415.4,173.1 417.8,173.0 420.2,172.9 422.5,
172.9 424.9,172.9 427.3,172.9 429.7,172.9 432.1,172.9 434.5,
173.0 436.9,173.1 439.2,173.2 441.6,173.4 444.0,173.6 446.4,
173.8 448.8,174.0 451.2,174.2 453.6,174.5 456.0,174.8 458.4,
175.1 460.8,175.5 463.1,175.8 465.5,176.2 467.9,176.6 470.3,
177.1 472.7,177.5 475.0,178.0 477.4,178.6 479.8,179.1 482.1,
179.7 484.5,180.2 486.9,180.8 489.2,181.5 491.6,182.1 493.9,
182.8 496.2,183.5 498.6,184.3 500.9,185.0 503.2,185.8 505.5,
186.6 507.9,187.4 510.2,188.3 512.5,189.1 514.7,190.0 517.0,
191.0 519.3,191.9 521.6,192.9 523.8,193.9 526.1,194.9 528.3,
195.9 530.6,197.0 532.8,198.1 535.0,199.2 537.2,200.3 539.4,
201.4 541.6,202.6 543.8,203.8 545.9,205.0 548.1,206.3 550.2,
207.5 552.4,208.8 554.5,210.1 556.6,211.5 558.7,212.8 560.8,
214.2 562.9,215.6 564.9,217.0 567.0,218.5 569.0,219.9 571.0,
221.4 573.0,222.9 575.0,224.4 577.0,226.0 579.0,227.5 580.9,
229.1 582.9,230.7 584.8,232.4 586.7,234.0 588.6,235.7 590.5,
237.4 592.4,239.1 594.2,240.8 596.0,242.6 597.9,244.3 599.7,
246.1 601.4,247.9 603.2,249.8 605.0,251.6 606.7,253.5 608.4,
255.3 610.1,257.3 611.8,259.2 613.4,261.1 615.1,263.1 616.7,
265.0 618.3,267.0 619.9,269.0 621.5,271.0 623.0,273.1 624.6,
275.1 626.1,277.2 627.6,279.3 629.0,281.4 630.5,283.5 631.9,
285.7 633.3,287.8 634.7,290.0 636.1,292.2 637.4,294.4 638.8,
296.6 640.1,298.8 641.4,301.1 642.6,303.3 643.9,305.6 645.1,
307.9 646.3,310.2 647.5,312.5 648.6,314.8 649.7,317.2 650.8,
319.5 651.9,321.9 653.0,324.2 654.0,326.6 655.0,329.0 656.0,
331.4 657.0,333.9 658.0,336.3 658.9,338.7 659.8,341.2 660.6,
343.6 661.5,346.1 662.3,348.6 663.1,351.1 663.9,353.6 664.6,
356.1 665.4,358.6 666.1,361.2 666.8,363.7 667.4,366.2 668.0,
368.8 668.6,371.4 669.2,373.9 669.8,376.5 670.3,379.1 670.8,
381.7 671.3,384.3 671.7,386.9 672.1,389.5 672.5,392.1 672.9,
394.7 673.3,397.3 673.6,400.0 673.9,402.6 674.1,405.3 674.4,
407.9 674.6,410.5 674.8,413.2 674.9,415.8 675.1,418.5 675.2,
421.2 675.3,423.8 675.3,426.5 675.3,429.1 675.4,431.8 675.3,
434.5 675.3,437.2 675.2,439.8 675.1,442.5 675.0,445.2 674.8,
447.8 674.6,450.5 674.4,453.2 674.2,455.9 673.9,458.5 673.6,
461.2 673.3,463.9 672.9,466.5 672.5,469.2 672.1,471.8 671.7,
474.5 671.3,477.2 670.8,479.8 670.3,482.5 669.7,485.1 669.2,
487.7 668.6,490.4 667.9,493.0 667.3,495.6 666.6,498.2 665.9,
500.9 665.2,503.5 664.5,506.1 663.7,508.7 662.9,511.3 662.0,
513.8 661.2,516.4 660.3,519.0 659.4,521.6 658.4,524.1 657.5,
526.7 656.5,529.2 655.5,531.7 654.4,534.2 653.4,536.8 652.3,
539.3 651.1,541.7 650.0,544.2 648.8,546.7 647.6,549.2 646.4,
551.6 645.2,554.0 643.9,556.5 642.6,558.9 641.3,561.3 639.9,
563.7 638.5,566.1 637.1,568.4 635.7,570.8 634.3,573.1 632.8,
575.5 631.3,577.8 629.8,580.1 628.2,582.4 626.6,584.6 625.0,
586.9 623.4,589.1 621.8,591.4 620.1,593.6 618.4,595.8 616.7,
597.9 615.0,600.1 613.2,602.2 611.4,604.4 609.6,606.5 607.8,
608.6 606.0,610.7 604.1,612.7 602.2,614.8 600.3,616.8 598.4,
618.8 596.4,620.8 594.4,622.8 592.4,624.7 590.4,626.6 588.4,
628.6 586.3,630.5 584.2,632.3 582.1,634.2 580.0,636.0 577.8,
637.8 575.7,639.6 573.5,641.4 571.3,643.1 569.1,644.9 566.8,
646.6 564.6,648.3 562.3,649.9 560.0,651.6 557.7,653.2 555.4,
654.8 553.0,656.4 550.6,657.9 548.3,659.4 545.9,660.9 543.5,
662.4 541.0,663.9 538.6,665.3 536.1,666.7 533.6,668.1 531.1,
669.5 528.6,670.8 526.1,672.1 523.5,673.4 521.0,674.7 518.4,
675.9 515.8,677.1 513.2,678.3 510.6,679.5 508.0,680.6 505.3,
681.7 502.7,682.8 500.0,683.9 497.4,684.9 494.7,685.9 492.0,
686.9 489.2,687.8 486.5,688.8 483.8,689.7 481.0,690.5 478.3,
691.4 475.5,692.2 472.7,693.0 469.9,693.7 467.2,694.5 464.3,
695.2 461.5,695.9 458.7,696.5 455.9,697.1 453.0,697.7 450.2,
698.3 447.3,698.8 444.5,699.3 441.6,699.8 438.7,700.3 435.8,
700.7 432.9,701.1 430.0,701.5 427.1,701.8 424.2,702.1 421.3,
702.4 418.4,702.6 415.5,702.8 412.6,703.0 409.6,703.2 406.7,
703.3 403.8,703.4 400.8,703.5 397.9,703.6 394.9,703.6 392.0,
703.6 389.1,703.5 386.1,703.4 383.2,703.3 380.2,703.2 377.2,
703.0 374.3,702.8 371.3,702.6 368.4,702.4 365.4,702.1 362.5,
701.8 359.5,701.4 356.6,701.1 353.6,700.7 350.7,700.2 347.8,
699.8 344.8,699.3 341.9,698.7 339.0,698.2 336.0,697.6 333.1,
697.0 330.2,696.4 327.3,695.7 324.4,695.0 321.5,694.3 318.6,
693.5 315.7,692.7 312.8,691.9 309.9,691.1 307.0,690.2 304.1,
689.3 301.3,688.3 298.4,687.4 295.6,686.4 292.7,685.4 289.9,
684.3 287.1,683.2 284.3,682.1 281.5,681.0 278.7,679.8 275.9,
678.6 273.1,677.4 270.4,676.2 267.6,674.9 264.9,673.6 262.1,
672.2 259.4,670.9 256.7,669.5 254.0,668.1 251.3,666.6 248.7,
665.1 246.0,663.6 243.4,662.1 240.7,660.6 238.1,659.0 235.5,
657.4 232.9,655.7 230.4,654.1 227.8,652.4 225.3,650.7 222.7,
648.9 220.2,647.1 217.7,645.3 215.3,643.5 212.8,641.7 210.4,
639.8 207.9,637.9 205.5,636.0 203.1,634.0 200.8,632.1 198.4,
630.1 196.1,628.0 193.8,626.0 191.5,623.9 189.2,621.8 186.9,
619.7 184.7,617.6 182.5,615.4 180.3,613.2 178.1,611.0 175.9,
608.8 173.8,606.5 171.7,604.2 169.6,601.9 167.5,599.6 165.5,
597.3 163.4,594.9 161.4,592.5 159.5,590.1 157.5,587.7 155.6,
585.2 153.7,582.7 151.8,580.2 149.9,577.7 148.1,575.2 146.2,
572.6 144.5,570.1 142.7,567.5 140.9,564.9 139.2,562.2 137.5,
559.6 135.9,556.9 134.2,554.3 132.6,551.6 131.0,548.8 129.5,
546.1 127.9,543.4 126.4,540.6 124.9,537.8 123.5,535.0 122.0,
532.2 120.6,529.4 119.3,526.5 117.9,523.6 116.6,520.8 115.3,
517.9 114.0,515.0 112.8,512.1 111.6,509.1 110.4,506.2 109.3,
503.2 108.2,500.2 107.1,497.3 106.0,494.3 105.0,491.3 104.0,
488.2 103.0,485.2 102.1,482.2 101.2,479.1 100.3,476.1 99.4,
473.0 98.6,469.9 97.8,466.8 97.1,463.7 96.3,460.6 95.6,
457.5 95.0,454.3 94.3,451.2 93.7,448.1 93.1,444.9 92.6,
441.8 92.1,438.6 91.6,435.4 91.2,432.2 90.7,429.1 90.3,
425.9 90.0,422.7 89.7,419.5 89.4,416.3 89.1,413.1 88.9,
409.9 88.7,406.6 88.5,403.4 88.4,400.2 88.3,397.0 88.2,
393.8 88.2,390.5 88.2,387.3 88.2,384.1 88.3,380.8 88.4,
377.6 88.5,374.4 88.7,371.1 88.9,367.9 89.1,364.7 89.4,
361.4 89.7,358.2 90.0,355.0 90.3,351.8 90.7,348.5 91.2,
345.3 91.6,342.1 92.1,338.9 92.6,335.7 93.2,332.5 93.7,
329.3 94.4,326.1 95.0,322.9 95.7,319.7 96.4,316.5 97.2,
313.3 97.9,310.1 98.7,307.0 99.6,303.8 100.5,300.7 101.4,
297.5 102.3,294.4 103.3,291.3 104.3,288.2 105.3,285.0 106.4,
281.9 107.5,278.9 108.6,275.8 109.8,272.7 111.0,269.6 112.2,
266.6 113.5,263.6 114.7,260.5 116.1,257.5 117.4,254.5 118.8,
251.5 120.2,248.5 121.6,245.6 123.1,242.6 124.6,239.7 126.2,
236.8 127.7,233.9 129.3,231.0 130.9,228.1 132.6,225.2 134.3,
222.4 136.0,219.5 137.7,216.7 139.5,213.9 141.3,211.1 143.1,
208.4 145.0,205.6 146.9,202.9 148.8,200.2 150.7,197.5 152.7,
194.8 154.7,192.1 156.7,189.5 158.8,186.9 160.9,184.3 163.0,
181.7 165.1,179.1 167.3,176.6 169.5,174.1 171.7,171.6 174.0,
169.1 176.2,166.6 178.5,164.2 180.8,161.8 183.2,159.4 185.6,
157.0 188.0,154.7 190.4,152.4 192.8,150.1 195.3,147.8 197.8,
145.5 200.3,143.3 202.9,141.1 205.4,138.9 208.0,136.8 210.6,
134.7 213.3,132.6 215.9,130.5 218.6,128.4 221.3,126.4 224.1,
124.4 226.8,122.4 229.6,120.5 232.4,118.6 235.2,116.7 238.0,
114.8 240.9,113.0 243.7,111.2 246.6,109.4 249.5,107.7 252.5,
105.9 255.4,104.2 258.4,102.6 261.4,101.0 264.4,99.3 267.4"/>
 <text style="font:bold 300% '';" fill="yellow">
  <textPath href="#fr" startOffset="0"
       dominant-baseline="middle">&#8702;
    <animate attributeName="startOffset" from="0%" to="100%" 
         dur="20s" repeatCount="indefinite" />
   </textPath>
  <textPath href="#fr" startOffset="-50"
        dominant-baseline="middle">&#8702;
     <animate attributeName="startOffset" from="0%" to="100%" 
         dur="20s" begin="0.2s" repeatCount="indefinite" />
   </textPath>
  </text>
</svg>
